<svg xml:space="preserve" style="enable-background:new 0 0 1484.04 305.84;" viewBox="0 0 1484.04 305.84" y="0px" x="0px" xmlns:xlink="http://www.w3.org/1999/xlink" xmlns="http://www.w3.org/2000/svg" id="图层_1" version="1.1">
<style type="text/css">
	.st0{fill:#F40638;}
</style>
<g>
	<g>
		<path d="M182.23,143.66h-26.56v0H76.35c-11.58,0-18.53-3.97-18.53-18.19v-5.62c0-12.58,7.61-16.87,20.18-16.87h71.61l19.59-33.75
			H74.37c-51.62,0-65.52,18.2-65.52,47.32v10.25c0,30.11,12.58,47.32,62.21,47.32h26.56v0h79.32c11.58,0,18.53,3.97,18.53,18.19
			v5.62c0,12.58-7.61,16.87-20.18,16.87H28.44L8.85,248.55h170.08c51.62,0,65.52-18.2,65.52-47.32v-10.25
			C244.44,160.87,231.87,143.66,182.23,143.66z"></path>
		<polygon points="210.71,63.11 186.79,104.54 234.62,104.54" class="st0"></polygon>
	</g>
	<g>
		<g>
			<path d="M464.34,248.71v-99.93c0-30.11-8.27-37.06-38.71-37.06h-98.27v136.99h-49.31V11.46h49.31v57.91h99.59
				c67.17,0,86.7,20.52,86.7,77.76v101.58H464.34z"></path>
			<path d="M612.91,248.71c-51.62,0-65.52-18.2-65.52-47.32v-16.87c0-30.11,12.58-47.32,62.21-47.32h132.69v-3.97
				c0-22.83-8.6-28.79-30.44-28.79h-48.96V69.36h48.96c57.25,0,79.75,20.52,79.75,66.18v43.67c0,51.96-18.2,69.49-81.73,69.49
				H612.91z M742.29,167.64h-127.4c-11.58,0-18.53,3.97-18.53,18.19v12.24c0,12.58,7.61,16.87,20.18,16.87h92.65
				c23.16,0,33.09-5.29,33.09-32.09V167.64z"></path>
			<path d="M827.31,248.71v-103.9c0-53.61,23.49-75.45,84.05-75.45h32.09v40.04h-30.77c-27.46,0-36.07,7.28-36.07,35.74v103.57
				H827.31z"></path>
			<path d="M1117.49,69.36c66.84,0,86.36,20.52,86.36,77.76v24.15c0,56.91-19.52,77.43-86.36,77.43h-99.93v53.6h-49.3V147.12
				c0-57.25,19.52-77.76,86.36-77.76H1117.49z M1154.55,148.44c0-31.43-8.61-37.06-43.35-37.06h-54.92
				c-31.11,0-38.72,7.28-38.72,36.72v58.57h93.98c34.41,0,43.01-4.64,43.01-37.06V148.44z"></path>
			<path d="M1299.15,248.71c-51.62,0-65.52-18.2-65.52-47.32v-16.87c0-30.11,12.58-47.32,62.21-47.32h132.69v-3.97
				c0-22.83-8.6-28.79-30.44-28.79h-48.96V69.36h48.96c57.25,0,79.75,20.52,79.75,66.18v43.67c0,51.96-18.2,69.49-81.73,69.49
				H1299.15z M1428.52,167.64h-127.4c-11.58,0-18.53,3.97-18.53,18.19v12.24c0,12.58,7.61,16.87,20.18,16.87h92.65
				c23.16,0,33.09-5.29,33.09-32.09V167.64z"></path>
		</g>
	</g>
</g>
</svg>
