<svg height="256" width="1292" xmlns="http://www.w3.org/2000/svg" version="1.1">
<path transform="translate(942.363037109375,49.7392578125)" fill="#FBFBFB" d="M0 0 C4.33143563 0.01140119 8.66262339 0.00480514 12.99405003 -0.00714493 C16.39440183 -0.01446451 19.79469744 -0.01203018 23.19505119 -0.00688934 C24.78980478 -0.00558102 26.38456394 -0.00709809 27.97931099 -0.01184845 C36.62528076 -0.03197207 45.15337124 0.2762926 53.7578125 1.1640625 C54.52699037 1.24307674 55.29616823 1.32209099 56.08865452 1.4034996 C70.83975945 3.0654631 83.91221997 7.1471973 94.72680664 17.58886719 C96.63218702 19.47407255 96.63218702 19.47407255 99.63696289 20.26074219 C102.40736457 23.6008321 104.49732693 26.92023692 104.94946289 31.26074219 C104.79477539 32.25074219 104.79477539 32.25074219 104.63696289 33.26074219 C105.29696289 33.26074219 105.95696289 33.26074219 106.63696289 33.26074219 C111.08768645 62.89213598 111.57656003 94.5316814 107.63696289 124.26074219 C106.97696289 124.26074219 106.31696289 124.26074219 105.63696289 124.26074219 C105.34821289 125.29199219 105.05946289 126.32324219 104.76196289 127.38574219 C104.57504883 128.02511719 104.38813477 128.66449219 104.19555664 129.32324219 C103.7112387 131.00311419 103.26439298 132.69370338 102.82446289 134.38574219 C100.41300442 140.22401007 95.22782527 143.41427853 90.21118164 146.92871094 C89.69168945 147.36828125 89.17219727 147.80785156 88.63696289 148.26074219 C88.63696289 148.92074219 88.63696289 149.58074219 88.63696289 150.26074219 C87.93055664 150.37675781 87.22415039 150.49277344 86.49633789 150.61230469 C83.42183289 151.3095285 80.7845523 152.39713532 77.88696289 153.63574219 C61.88346622 159.79749176 45.69780178 159.67348005 28.78930664 159.55371094 C26.43706027 159.54810234 24.08481036 159.54383823 21.7325592 159.54084778 C15.59896847 159.52949842 9.46559738 159.5001186 3.33209229 159.46673584 C-4.05790926 159.430365 -11.44798505 159.41682655 -18.83805084 159.39937592 C-30.01319813 159.37047381 -41.1878653 159.31291747 -52.36303711 159.26074219 C-52.36303711 174.77074219 -52.36303711 190.28074219 -52.36303711 206.26074219 C-67.87303711 206.26074219 -83.38303711 206.26074219 -99.36303711 206.26074219 C-99.40814985 184.79922483 -99.44500638 163.33774574 -99.46666145 141.87619305 C-99.47698264 131.91166679 -99.49105905 121.94717205 -99.51391602 111.98266602 C-99.53382412 103.29959223 -99.54674741 94.61654125 -99.5512141 85.93344527 C-99.55382586 81.33402134 -99.55998207 76.73466268 -99.57449722 72.13525963 C-99.58804041 67.80891649 -99.59226639 63.48266572 -99.58925247 59.15630341 C-99.5898041 57.56596437 -99.59380095 55.97562234 -99.60144806 54.38530159 C-99.61135838 52.21860107 -99.6090205 50.05225201 -99.60354614 47.88554382 C-99.60538973 46.67154246 -99.60723331 45.4575411 -99.60913277 44.20675182 C-99.36303711 41.26074219 -99.36303711 41.26074219 -97.36303711 38.26074219 C-96.2695987 35.35875717 -96.2695987 35.35875717 -96.11303711 32.57324219 C-95.12349032 28.20274388 -93.07956236 24.8066116 -90.36303711 21.26074219 C-89.70303711 20.93074219 -89.04303711 20.60074219 -88.36303711 20.26074219 C-88.05366211 19.64199219 -87.74428711 19.02324219 -87.42553711 18.38574219 C-86.29981529 16.13429855 -85.31608575 14.83820455 -83.36303711 13.26074219 C-82.80358398 13.13828125 -82.24413086 13.01582031 -81.66772461 12.88964844 C-78.46741248 12.01634293 -75.78719799 10.44661185 -72.86303711 8.88574219 C-50.83134659 -2.35799747 -24.09636463 -0.06411545 0 0 Z M-94.36303711 30.26074219 C-93.36303711 32.26074219 -93.36303711 32.26074219 -93.36303711 32.26074219 Z M-95.36303711 32.26074219 C-94.36303711 34.26074219 -94.36303711 34.26074219 -94.36303711 34.26074219 Z M105.63696289 36.26074219 C106.63696289 39.26074219 106.63696289 39.26074219 106.63696289 39.26074219 Z M-49.36303711 46.26074219 C-50.24247115 48.89535167 -50.24247115 48.89535167 -50.36303711 51.26074219 C-51.02303711 51.26074219 -51.68303711 51.26074219 -52.36303711 51.26074219 C-53.72156036 58.23345834 -53.35401176 65.144124 -53.17163086 72.21777344 C-53.14220208 73.57059568 -53.11357434 74.92343556 -53.08570862 76.27629089 C-52.96661087 81.99525741 -52.83406161 87.71387541 -52.69433594 93.43237305 C-52.60914191 96.9415845 -52.53376155 100.45089659 -52.46440315 103.96045494 C-52.42211805 105.94490947 -52.36840528 107.92910979 -52.31455994 109.9132843 C-52.29116043 111.11180527 -52.26776093 112.31032623 -52.24365234 113.54516602 C-52.21843002 114.60326981 -52.1932077 115.6613736 -52.16722107 116.75154114 C-52.36303711 119.26074219 -52.36303711 119.26074219 -54.36303711 121.26074219 C-41.92309265 121.33046667 -29.48319522 121.38366712 -17.04309464 121.4161787 C-11.26571973 121.4317881 -5.48847922 121.45293962 0.28881836 121.48706055 C5.87148599 121.51982303 11.45402491 121.53763069 17.03678131 121.54537392 C19.15927402 121.55088722 21.28176025 121.56165284 23.40419769 121.57793236 C39.38553722 122.22596257 39.38553722 122.22596257 54.63696289 118.26074219 C55.13196289 116.77574219 55.13196289 116.77574219 55.63696289 115.26074219 C57.56938336 113.64000244 59.3821191 112.38816408 61.63696289 111.26074219 C64.5459167 104.24503006 64.79218636 96.8221073 64.76977539 89.32324219 C64.77121048 88.23668335 64.77121048 88.23668335 64.77267456 87.12817383 C64.77334982 85.60888583 64.77154163 84.08959483 64.76733398 82.5703125 C64.76197636 80.26653461 64.76730136 77.96295163 64.77368164 75.65917969 C64.77302074 74.1722001 64.77173934 72.68522063 64.76977539 71.19824219 C64.77281174 70.18225952 64.77281174 70.18225952 64.77590942 69.14575195 C65.05350555 60.90096835 65.05350555 60.90096835 62.26196289 53.57324219 C61.72571289 53.14011719 61.18946289 52.70699219 60.63696289 52.26074219 C57.63696289 47.81629774 57.63696289 47.81629774 57.63696289 44.26074219 C56.24418272 43.6083506 54.84757077 42.96413667 53.44946289 42.32324219 C52.6721582 41.96359375 51.89485352 41.60394531 51.09399414 41.23339844 C46.11158864 39.26103124 41.26362921 39.10799961 35.96020508 39.09960938 C35.20339951 39.09464447 34.44659393 39.08967957 33.66685486 39.08456421 C31.17250648 39.07000517 28.67822172 39.06315063 26.18383789 39.05761719 C24.44134521 39.05186006 22.69885254 39.0461024 20.95635986 39.04034424 C17.30480658 39.02985167 13.65327521 39.02399778 10.00170898 39.02050781 C5.34036013 39.01503044 0.67930443 38.99101124 -3.98195267 38.96253586 C-7.5817955 38.94383977 -11.18156873 38.93870015 -14.78145599 38.93717194 C-16.49892528 38.93415999 -18.21639376 38.92618116 -19.933815 38.91298676 C-35.96830102 38.43651991 -35.96830102 38.43651991 -49.36303711 46.26074219 Z M-98.36303711 42.26074219 C-98.36303711 43.91074219 -98.36303711 45.56074219 -98.36303711 47.26074219 C-98.03303711 47.26074219 -97.70303711 47.26074219 -97.36303711 47.26074219 C-97.36303711 45.61074219 -97.36303711 43.96074219 -97.36303711 42.26074219 C-97.69303711 42.26074219 -98.02303711 42.26074219 -98.36303711 42.26074219 Z M-51.36303711 48.26074219 C-50.36303711 50.26074219 -50.36303711 50.26074219 -50.36303711 50.26074219 Z M60.63696289 50.26074219 C61.63696289 52.26074219 61.63696289 52.26074219 61.63696289 52.26074219 Z M-54.36303711 58.26074219 C-54.36303711 78.39074219 -54.36303711 98.52074219 -54.36303711 119.26074219 C-54.03303711 119.26074219 -53.70303711 119.26074219 -53.36303711 119.26074219 C-53.36303711 99.13074219 -53.36303711 79.00074219 -53.36303711 58.26074219 C-53.69303711 58.26074219 -54.02303711 58.26074219 -54.36303711 58.26074219 Z M106.63696289 116.26074219 C107.63696289 120.26074219 107.63696289 120.26074219 107.63696289 120.26074219 Z"></path>
<path transform="translate(236,0)" fill="#FAFAFA" d="M0 0 C15.51 0 31.02 0 47 0 C47 15.84 47 31.68 47 48 C78.35 48 109.7 48 142 48 C142 48.66 142 49.32 142 50 C143.26972656 50.09796875 144.53945313 50.1959375 145.84765625 50.296875 C163.75281037 51.80090795 180.58302309 54.2913673 193.9921875 67.23046875 C195.8934515 69.0641892 195.8934515 69.0641892 198.1171875 70.03125 C201.35997372 71.69973752 202.64776485 74.71801261 204 78 C204.25 80.9375 204.25 80.9375 204 83 C204.66 83 205.32 83 206 83 C206.06000246 83.61525166 206.12000492 84.23050331 206.18182564 84.86439896 C206.59899098 89.09533818 207.02981659 93.32242232 207.52828979 97.5446167 C209.00027494 110.37764349 209.26342813 123.04629992 209.1953125 135.953125 C209.19156986 138.07688258 209.18872883 140.20064191 209.18673706 142.32440186 C209.17919888 147.84140011 209.1596381 153.3582885 209.1373291 158.87524414 C209.11300378 165.5336378 209.10404283 172.19206876 209.09242249 178.85049438 C209.07320533 188.90040536 209.03481498 198.95007659 209 209 C194.15 209 179.3 209 164 209 C163.67 176.99 163.34 144.98 163 112 C162.34 112 161.68 112 161 112 C160.90203125 111.35933594 160.8040625 110.71867187 160.703125 110.05859375 C159.53840799 103.32130827 157.97477221 98.30530246 153.3125 93.125 C147.10840748 90.10679283 139.02059498 90.85810034 132.25756836 90.88647461 C131.31482591 90.88635407 130.37208345 90.88623354 129.40077305 90.88610935 C126.3804384 90.88684957 123.36016721 90.89443679 120.33984375 90.90234375 C118.4626061 90.90381593 116.58536803 90.90483494 114.70812988 90.90539551 C107.78458029 90.91061636 100.86103951 90.92457761 93.9375 90.9375 C78.448125 90.958125 62.95875 90.97875 47 91 C47 129.94 47 168.88 47 209 C31.49 209 15.98 209 0 209 C0 140.03 0 71.06 0 0 Z M45 89 C45 89.33 45 89.66 45 90 C77.01 90 109.02 90 142 90 C142 89.67 142 89.34 142 89 C109.99 89 77.98 89 45 89 Z"></path>
<path transform="translate(574,50)" fill="#FAFAFA" d="M0 0 C7.21839298 -0.05137439 14.43673759 -0.08601139 21.65527344 -0.10986328 C24.1028825 -0.11982336 26.55047998 -0.13339629 28.99804688 -0.15087891 C51.96766903 -0.31065124 73.82965985 -0.3576243 94.57421875 10.73046875 C97.03406168 12.10008429 97.03406168 12.10008429 100 13 C100.309375 13.639375 100.61875 14.27875 100.9375 14.9375 C101.79570628 17.14504736 101.79570628 17.14504736 103.8359375 17.7734375 C108.50606478 20.42040495 110.71179903 26.32096108 113 31 C113.875 34.625 113.875 34.625 114 38 C114.15990927 39.44182167 114.32559346 40.8830076 114.49511719 42.32373047 C115.16724665 48.94341014 115.18098464 55.54654015 115.203125 62.1953125 C115.20736607 63.19417795 115.20736607 63.19417795 115.21169281 64.2132225 C115.22658215 67.73948292 115.23587546 71.26570352 115.24023438 74.79199219 C115.24461288 77.67005127 115.25849406 80.54780955 115.28125 83.42578125 C115.51505077 113.57153934 115.51505077 113.57153934 112 127 C111.59929494 128.8322747 111.20277616 130.66547563 110.8125 132.5 C110.544375 133.655 110.27625 134.81 110 136 C109.34 136 108.68 136 108 136 C107.9175 136.78375 107.835 137.5675 107.75 138.375 C107.5025 139.24125 107.255 140.1075 107 141 C105.6799232 141.69254564 104.34424998 142.35562882 103 143 C101.78522589 144.07408758 100.59904426 145.18106056 99.4375 146.3125 C86.54559412 157.77461965 68.36056149 159.13721659 51.88696289 159.17700195 C50.69390533 159.18357315 49.50084778 159.19014435 48.27163696 159.19691467 C44.33864975 159.21655995 40.40567602 159.22830603 36.47265625 159.23828125 C35.10849934 159.24233538 33.74434261 159.24645248 32.38018608 159.25063133 C25.96387358 159.26965298 19.54757231 159.2838873 13.13123709 159.2922433 C5.77353501 159.30198848 -1.58386407 159.32824911 -8.9414596 159.36874419 C-14.65988831 159.39911547 -20.37823122 159.41373206 -26.09673887 159.41702431 C-29.4971704 159.41935196 -32.89727724 159.42800731 -36.29762077 159.45348549 C-54.29301768 159.56976318 -70.59233244 159.20383378 -87 151 C-87.99 150.67 -88.98 150.34 -90 150 C-90.309375 149.360625 -90.61875 148.72125 -90.9375 148.0625 C-91.80928675 145.85321249 -91.80928675 145.85321249 -93.89729309 145.1157074 C-97.8689085 143.00834727 -99.42888696 139.06611413 -101 135 C-101.67276306 131.193528 -101.72215489 127.48017685 -101.70703125 123.62109375 C-101.72215256 122.56841812 -101.73727386 121.51574249 -101.75285339 120.4311676 C-101.79552076 117.09972358 -101.80454847 113.76918932 -101.8125 110.4375 C-101.83566048 108.16599179 -101.86102901 105.89450496 -101.88867188 103.62304688 C-101.95131688 98.08202242 -101.9864172 92.54135046 -102 87 C-101.34 87 -100.68 87 -100 87 C-99.9175 85.7625 -99.835 84.525 -99.75 83.25 C-99.22128233 79.17744501 -98.29256005 77.59938952 -95 75 C-94.5153125 74.53980469 -94.030625 74.07960938 -93.53125 73.60546875 C-84.00009773 64.72621133 -71.73051945 61.2009924 -59 60 C-59 59.34 -59 58.68 -59 58 C-17.09 58 24.82 58 68 58 C66.59628479 45.19256959 66.59628479 45.19256959 64 38 C62.35 37.67 60.7 37.34 59 37 C59 36.34 59 35.68 59 35 C55.95259509 33.98419836 53.81855876 33.85188569 50.62646484 33.81054688 C48.97993423 33.78547058 48.97993423 33.78547058 47.30014038 33.7598877 C46.11570343 33.74631226 44.93126648 33.73273682 43.7109375 33.71875 C42.49677155 33.70034058 41.28260559 33.68193115 40.03164673 33.66296387 C34.8242491 33.5841178 29.61672075 33.51635855 24.40917969 33.44775391 C20.61386398 33.39618455 16.81866514 33.33888482 13.0234375 33.28125 C11.83495209 33.26767456 10.64646667 33.25409912 9.42196655 33.2401123 C8.3305838 33.22339478 7.23920105 33.20667725 6.11474609 33.18945312 C4.6660463 33.17066101 4.6660463 33.17066101 3.18807983 33.15148926 C1 33 1 33 0 32 C-0.0883967 29.6243148 -0.11530305 27.27791326 -0.09765625 24.90234375 C-0.0962413 24.19348526 -0.09482635 23.48462677 -0.09336853 22.75428772 C-0.08775443 20.48198288 -0.07519963 18.20977525 -0.0625 15.9375 C-0.05748681 14.40039204 -0.05292359 12.86328255 -0.04882812 11.32617188 C-0.03778042 7.55074358 -0.02050641 3.77538829 0 0 Z M110 29 C111 31 111 31 111 31 Z M111 32 C112 34 112 34 112 34 Z M112 34 C113 37 113 37 113 37 Z M68 46 C69 48 69 48 69 48 Z M69 48 C69 51.3 69 54.6 69 58 C69.33 58 69.66 58 70 58 C70 54.7 70 51.4 70 48 C69.67 48 69.34 48 69 48 Z M-52 90 C-52 90.99 -52 91.98 -52 93 C-52.73476563 94.56234375 -52.73476563 94.56234375 -53.484375 96.15625 C-55.34016037 100.31320922 -55.37864816 104.00535506 -55.25 108.5 C-55.24484375 109.22058594 -55.2396875 109.94117188 -55.234375 110.68359375 C-55.20384647 112.79387829 -55.11081143 114.89256811 -55 117 C-54.95359375 118.2478125 -54.9071875 119.495625 -54.859375 120.78125 C-53.91818107 124.30644907 -52.9705148 125.30293049 -49.91469955 127.18919563 C-46.11126915 128.79980758 -42.15222742 128.54449313 -38.08251953 128.50170898 C-37.09962952 128.50711197 -36.1167395 128.51251495 -35.10406494 128.51808167 C-31.86333865 128.53056192 -28.62350211 128.51407957 -25.3828125 128.49609375 C-23.12368727 128.49624878 -20.86456177 128.49773839 -18.60543823 128.50050354 C-13.87274402 128.50188731 -9.14035293 128.48933469 -4.40771484 128.46655273 C1.64713808 128.4382011 7.70148619 128.44089709 13.75637627 128.45364285 C18.42164388 128.4606121 23.08679567 128.45279588 27.75204849 128.44038582 C29.98388347 128.43588117 32.21573092 128.43552587 34.44756699 128.43945122 C37.57321205 128.44237476 40.69817214 128.42580011 43.82373047 128.40405273 C44.73931732 128.40855438 45.65490417 128.41305603 46.59823608 128.41769409 C52.38742876 128.35106404 56.73042622 127.45529624 62 125 C63.93726509 122.74765809 63.93726509 122.74765809 64.9375 120.0625 C65.31777344 119.20785156 65.69804688 118.35320312 66.08984375 117.47265625 C67.53826768 113.53766763 68.11659846 110.28931408 68.02734375 106.0859375 C68.01509766 105.16039062 68.00285156 104.23484375 67.99023438 103.28125 C67.95493506 101.33586558 67.91584202 99.39054646 67.87304688 97.4453125 C67.86208984 96.52234375 67.85113281 95.599375 67.83984375 94.6484375 C67.82300537 93.80458496 67.80616699 92.96073242 67.78881836 92.09130859 C68 90 68 90 70 88 C54.97911967 87.95324636 39.958245 87.91799467 24.93730736 87.89637566 C17.96257467 87.88607006 10.98788723 87.87202344 4.01318359 87.84912109 C-2.71709186 87.82703192 -9.44731056 87.81543269 -16.17762375 87.81024551 C-18.74605423 87.80654861 -21.31448213 87.79932957 -23.88289261 87.78853989 C-27.47878848 87.77403386 -31.07448975 87.77202172 -34.67041016 87.77294922 C-35.73352417 87.76575867 -36.79663818 87.75856812 -37.89196777 87.75115967 C-42.99571302 87.7654155 -47.22607646 87.94660454 -52 90 Z M69 90 C69 96.93 69 103.86 69 111 C69.33 111 69.66 111 70 111 C70 104.07 70 97.14 70 90 C69.67 90 69.34 90 69 90 Z M-56 98 C-55 100 -55 100 -55 100 Z M-57 101 C-57 106.28 -57 111.56 -57 117 C-56.67 117 -56.34 117 -56 117 C-56 111.72 -56 106.44 -56 101 C-56.33 101 -56.66 101 -57 101 Z M68 111 C69 115 69 115 69 115 Z M-56 117 C-55 119 -55 119 -55 119 Z M-100 131 C-99 134 -99 134 -99 134 Z M-99 135 C-98 137 -98 137 -98 137 Z"></path>
<path transform="translate(1178,50)" fill="#FAFAFA" d="M0 0 C7.23690053 -0.04627503 14.47327368 -0.08599005 21.71020508 -0.10986328 C24.16465 -0.1198309 26.61908333 -0.13340985 29.07348633 -0.15087891 C82.85946232 -0.52370728 82.85946232 -0.52370728 101.0625 17.265625 C102.90350777 19.07054776 102.90350777 19.07054776 105.11328125 20.0390625 C108.34376899 21.68440408 109.68306697 24.76810639 111 28 C111.31821185 29.97291345 111.63101842 31.9509362 111.78890991 33.94309998 C111.97840839 36.31610333 111.97840839 36.31610333 113.00244141 39.78540039 C114.55222026 46.62115959 114.32889437 53.58809311 114.3359375 60.55859375 C114.34238353 62.07202778 114.34911315 63.58546063 114.35610962 65.09889221 C114.36803684 68.26509478 114.37179562 71.43118869 114.37060547 74.59741211 C114.37044355 77.80825482 114.38423437 81.01852318 114.41162109 84.22924805 C114.74229848 123.51540304 114.74229848 123.51540304 109 135 C108.9175 135.598125 108.835 136.19625 108.75 136.8125 C106.60292306 143.07480774 99.37545416 146.71210085 94 150 C92.95972656 150.66902344 92.95972656 150.66902344 91.8984375 151.3515625 C75.16470046 160.989722 53.76010003 159.58274136 35.1953125 159.49609375 C32.45490135 159.49432882 29.71450031 159.49769194 26.97409058 159.50050354 C21.26746982 159.50318279 15.56106218 159.48992223 9.85449219 159.46655273 C3.29682558 159.43988045 -3.26048711 159.43822883 -9.8181895 159.4499411 C-16.18808421 159.46078592 -22.55785338 159.45448454 -28.92773819 159.44038582 C-31.61242815 159.43469137 -34.29687334 159.43550936 -36.98159409 159.43945122 C-63.79033859 159.46040704 -63.79033859 159.46040704 -75 156 C-75.93254608 155.71994614 -76.86509216 155.43989227 -77.82589722 155.15135193 C-84.0857573 153.14654649 -88.22122184 149.48608901 -92.87109375 144.92578125 C-94.93696132 142.79773397 -94.93696132 142.79773397 -98 142 C-98.9140625 139.3046875 -98.9140625 139.3046875 -99.625 135.875 C-99.86476563 134.75867188 -100.10453125 133.64234375 -100.3515625 132.4921875 C-101.99006043 123.66798779 -102.28568334 115.15366722 -102.35009766 106.21313477 C-102.36664765 104.53460821 -102.39392552 102.85615186 -102.43212891 101.17797852 C-102.85087983 82.62003018 -102.85087983 82.62003018 -97 75 C-94.6875 73.25 -94.6875 73.25 -92 72 C-90.80443437 71.03069796 -89.61789156 70.05022434 -88.4375 69.0625 C-79.9379996 62.64808303 -69.31453707 61.26436261 -59 60 C-59.33 59.34 -59.66 58.68 -60 58 C-17.76 58 24.48 58 68 58 C68 54.04 68 50.08 68 46 C67.34 46 66.68 46 66 46 C65.5978125 44.3603125 65.5978125 44.3603125 65.1875 42.6875 C63.96921034 38.61570658 63.96921034 38.61570658 61 36 C55.01850058 33.29806874 48.81838002 33.64936145 42.3828125 33.5859375 C41.17051971 33.56657135 39.95822693 33.5472052 38.709198 33.5272522 C34.84786961 33.46760685 30.98651117 33.42113055 27.125 33.375 C24.50259137 33.33680644 21.88019509 33.29775391 19.2578125 33.2578125 C12.83860699 33.16030558 6.41952871 33.08061536 0 33 C0 22.11 0 11.22 0 0 Z M69 52 C69 53.98 69 55.96 69 58 C69.33 58 69.66 58 70 58 C70 56.02 70 54.04 70 52 C69.67 52 69.34 52 69 52 Z M-100 83 C-99 85 -99 85 -99 85 Z M-101 86 C-100 89 -100 89 -100 89 Z M-46 88 C-46 88.33 -46 88.66 -46 89 C-7.72 89 30.56 89 70 89 C70 88.67 70 88.34 70 88 C31.72 88 -6.56 88 -46 88 Z M-55 94 C-55.72759368 96.89431081 -55.72759368 96.89431081 -55.59375 100 C-55.59117188 101.134375 -55.58859375 102.26875 -55.5859375 103.4375 C-55.55757812 104.613125 -55.52921875 105.78875 -55.5 107 C-55.50257812 108.175625 -55.50515625 109.35125 -55.5078125 110.5625 C-55.44144602 116.40275029 -55.35531126 120.0760273 -52 125 C-51.67 125.66 -51.34 126.32 -51 127 C-48.27011673 127.90996109 -46.66702574 128.12902423 -43.85871887 128.14044189 C-43.0163266 128.14615204 -42.17393433 128.15186218 -41.30601501 128.15774536 C-39.92440941 128.15942215 -39.92440941 128.15942215 -38.51489258 128.16113281 C-37.54219421 128.16609772 -36.56949585 128.17106262 -35.56732178 128.17617798 C-32.34305111 128.19080556 -29.11882968 128.19760345 -25.89453125 128.203125 C-23.65353901 128.208877 -21.41254678 128.21463473 -19.17155457 128.22039795 C-14.46812714 128.23091035 -9.76471682 128.23675111 -5.0612793 128.24023438 C0.95661023 128.24571238 6.97427274 128.26972473 12.99209118 128.29820633 C17.6238724 128.31686132 22.25559932 128.32203989 26.88741493 128.32357025 C29.10531159 128.32659203 31.3232074 128.33460447 33.54106712 128.34775543 C36.65019173 128.36487157 39.7587669 128.36292165 42.86791992 128.35644531 C43.77886917 128.3656601 44.68981842 128.37487488 45.62837219 128.3843689 C51.41846034 128.34672008 55.68981634 127.33073076 61 125 C61 124.34 61 123.68 61 123 C62.32 122.67 63.64 122.34 65 122 C65.33 120.35 65.66 118.7 66 117 C66.66 117 67.32 117 68 117 C68.99384397 113.74741974 69.04826731 110.96534629 68.87890625 107.578125 C68.83056641 106.55332031 68.78222656 105.52851563 68.73242188 104.47265625 C68.64831055 102.87744141 68.64831055 102.87744141 68.5625 101.25 C68.51029297 100.17105469 68.45808594 99.09210938 68.40429688 97.98046875 C68.27480531 95.32000578 68.13984639 92.65993548 68 90 C52.70143483 89.75253111 37.40264556 89.53397677 22.10319233 89.34978771 C14.99926978 89.26359075 7.89570917 89.16795537 0.79223633 89.05004883 C-6.06105395 88.9363215 -12.91427439 88.84896609 -19.76813698 88.77779579 C-22.3849574 88.74629139 -25.0016862 88.70590071 -27.61823082 88.65654564 C-31.27909059 88.58899927 -34.93900033 88.55285732 -38.6003418 88.52416992 C-40.22845795 88.48317924 -40.22845795 88.48317924 -41.88946533 88.44136047 C-47.95366703 88.43201416 -51.3083913 88.64254465 -55 94 Z M69 90 C69 95.28 69 100.56 69 106 C69.33 106 69.66 106 70 106 C70 100.72 70 95.44 70 90 C69.67 90 69.34 90 69 90 Z M-57 97 C-57 104.59 -57 112.18 -57 120 C-56.67 120 -56.34 120 -56 120 C-56 112.41 -56 104.82 -56 97 C-56.33 97 -56.66 97 -57 97 Z"></path>
<path transform="translate(56.85595703125,49.886474609375)" fill="#FBFBFB" d="M0 0 C1.3920742 -0.00021904 1.3920742 -0.00021904 2.81227112 -0.0004425 C5.84215738 0.0002473 8.87198011 0.00799549 11.90185547 0.01586914 C14.01748623 0.01773664 16.13311743 0.01915897 18.24874878 0.02015686 C23.78887142 0.02395591 29.32896741 0.03376362 34.86907959 0.04486084 C40.53364705 0.0551314 46.19821886 0.05966653 51.86279297 0.06469727 C62.95655461 0.07538846 74.05029656 0.09243316 85.14404297 0.11352539 C86.14404297 3.11352539 86.14404297 3.11352539 85.11181641 5.48608398 C84.58104492 6.40212402 84.05027344 7.31816406 83.50341797 8.26196289 C82.92720703 9.26743164 82.35099609 10.27290039 81.75732422 11.30883789 C81.14244141 12.35813477 80.52755859 13.40743164 79.89404297 14.48852539 C79.29462891 15.53008789 78.69521484 16.57165039 78.07763672 17.64477539 C76.44530427 20.47511679 74.80218511 23.29823616 73.14404297 26.11352539 C72.75721848 26.97985092 72.37039398 27.84617645 71.97184753 28.73875427 C70.14404297 31.11352539 70.14404297 31.11352539 67.11476135 31.73930359 C65.87218063 31.73993301 64.62959991 31.74056244 63.34936523 31.74121094 C62.31959061 31.75211761 62.31959061 31.75211761 61.26901245 31.76324463 C58.99896844 31.78185168 56.73049427 31.76576447 54.46044922 31.75024414 C52.88246755 31.7582827 51.30449672 31.7687999 49.72654724 31.7816925 C45.5703241 31.81027565 41.41459915 31.81081135 37.25830078 31.80383301 C30.60932239 31.79651735 23.96050629 31.82785255 17.31165886 31.86628151 C14.9894403 31.87513363 12.66757004 31.86982855 10.34535217 31.86271667 C8.91960556 31.86610169 7.49385976 31.86985112 6.06811523 31.87402344 C4.82473892 31.87226608 3.58136261 31.87050873 2.30030823 31.86869812 C-0.72770231 32.10357684 -2.3075806 32.55856643 -4.85595703 34.11352539 C-5.57783203 34.40227539 -6.29970703 34.69102539 -7.04345703 34.98852539 C-9.01692762 35.944959 -9.01692762 35.944959 -9.45874023 37.94018555 C-10.09792525 41.43743507 -10.0404134 44.94574365 -10.04345703 48.48852539 C-10.06182617 49.60227539 -10.06182617 49.60227539 -10.08056641 50.73852539 C-10.09231383 55.17121881 -10.04166419 59.14931131 -7.85595703 63.11352539 C-1.93045683 65.44836226 3.78426811 65.40071177 10.08959961 65.38476562 C11.17028717 65.38999237 12.25097473 65.39521912 13.3644104 65.40060425 C15.70405188 65.41081985 18.04371594 65.41662038 20.38337898 65.41848564 C24.0970369 65.42216154 27.81043068 65.43892438 31.52403259 65.45924377 C40.75205847 65.50756642 49.98012713 65.53920325 59.20825195 65.56054688 C67.002871 65.57869166 74.79725995 65.6081782 82.59176445 65.6545887 C85.04470261 65.66617169 87.49767422 65.67216846 89.95063972 65.67226982 C120.26494432 65.67397606 120.26494432 65.67397606 133.26904297 72.17602539 C134.30287109 72.68262695 135.33669922 73.18922852 136.40185547 73.71118164 C137.30677734 74.17395508 138.21169922 74.63672852 139.14404297 75.11352539 C139.90458984 75.46543945 140.66513672 75.81735352 141.44873047 76.17993164 C143.70476645 77.4223109 144.06004167 78.81002263 145.14404297 81.11352539 C145.82466797 81.67040039 146.50529297 82.22727539 147.20654297 82.80102539 C149.69024179 85.76544011 149.73486206 87.92505691 149.96826172 91.69946289 C150.10117197 94.16557584 150.10117197 94.16557584 150.64892578 96.76293945 C151.21219282 100.57471303 151.26951828 104.29532703 151.24169922 108.13696289 C151.2395768 109.25622665 151.2395768 109.25622665 151.2374115 110.39810181 C151.2318517 112.76161857 151.21930686 115.12503766 151.20654297 117.48852539 C151.20152276 119.0992011 151.19696077 120.7098783 151.19287109 122.32055664 C151.18189548 126.25158338 151.16465893 130.18253787 151.14404297 134.11352539 C150.48404297 134.11352539 149.82404297 134.11352539 149.14404297 134.11352539 C149.10279297 134.93852539 149.06154297 135.76352539 149.01904297 136.61352539 C147.82581458 141.38643893 145.59100763 144.62774356 142.14404297 148.11352539 C138.76904297 149.86352539 138.76904297 149.86352539 135.14404297 151.11352539 C133.88671478 151.76626598 132.63695205 152.43373022 131.39404297 153.11352539 C122.29506713 157.72485101 112.10655767 159.2414304 102.0002594 159.23377991 C100.9744834 159.23506154 100.9744834 159.23506154 99.92798465 159.23636907 C97.65565707 159.23800522 95.38340468 159.23253331 93.11108398 159.22705078 C91.47460431 159.22676848 89.8381245 159.22692748 88.2016449 159.22749329 C83.77243744 159.22777959 79.34325721 159.22190989 74.91405606 159.21491933 C70.28026547 159.20865794 65.64647422 159.20807979 61.01268005 159.20689392 C52.24391367 159.20378882 43.47515979 159.19558649 34.7063989 159.18554443 C24.72093855 159.17435781 14.73547758 159.16886642 4.75001252 159.163849 C-15.78531764 159.15340319 -36.32063655 159.13581964 -56.85595703 159.11352539 C-56.97772352 154.36504167 -56.53571899 151.82109426 -54.08251953 147.71508789 C-53.50501953 146.7418457 -52.92751953 145.76860352 -52.33251953 144.76586914 C-51.72150391 143.7668457 -51.11048828 142.76782227 -50.48095703 141.73852539 C-49.87767578 140.71629883 -49.27439453 139.69407227 -48.65283203 138.64086914 C-45.33097396 133.11182092 -45.33097396 133.11182092 -43.85595703 131.11352539 C-43.19595703 131.11352539 -42.53595703 131.11352539 -41.85595703 131.11352539 C-41.19595703 130.12352539 -40.53595703 129.13352539 -39.85595703 128.11352539 C-37.47866154 127.73435116 -37.47866154 127.73435116 -34.43458557 127.72825623 C-33.28343262 127.7186084 -32.13227966 127.70896057 -30.94624329 127.69902039 C-29.67709579 127.70359756 -28.4079483 127.70817474 -27.1003418 127.71289062 C-25.75517159 127.70715076 -24.41000653 127.70006909 -23.06484985 127.69174194 C-20.16463512 127.67660448 -17.26460475 127.67085663 -14.36435127 127.67226982 C-9.78038879 127.67429896 -5.1966752 127.65476738 -0.61277771 127.63209534 C8.29052463 127.59107001 17.19380761 127.57250392 26.09718323 127.55592346 C37.42670689 127.53358659 48.75617339 127.50008473 60.0856033 127.44872433 C64.64424674 127.42877337 69.20276048 127.41922074 73.76144588 127.41777217 C76.59576749 127.41502543 79.43001732 127.40420316 82.26430893 127.39126205 C84.20912924 127.38492815 86.15397399 127.38858347 88.09880066 127.39250183 C89.25277344 127.38567383 90.40674622 127.37884583 91.59568787 127.37181091 C92.60060996 127.37017661 93.60553205 127.36854231 94.64090633 127.36685848 C97.39301827 127.2856143 97.39301827 127.2856143 100.14404297 125.11352539 C103.75346918 120.6607753 103.53587648 116.57411559 103.39404297 111.11352539 C103.38630859 109.92243164 103.38630859 109.92243164 103.37841797 108.70727539 C103.43550547 102.79118767 103.43550547 102.79118767 102.14404297 97.11352539 C97.3730719 94.32106867 92.06773707 94.82109292 86.71679688 94.82641602 C85.66726837 94.81958298 84.61773987 94.81274994 83.53640747 94.80570984 C81.2584001 94.79212949 78.9803623 94.7830713 76.7023201 94.77799988 C73.08516178 94.769694 69.46825389 94.74916803 65.85116577 94.72546387 C58.15716224 94.6772387 50.46313322 94.64435934 42.76904297 94.61352539 C33.8834602 94.57773798 24.99799802 94.53551483 16.11252975 94.47758484 C12.5704963 94.45769591 9.02855802 94.44923 5.48648071 94.44128418 C-23.99266434 94.30260689 -23.99266434 94.30260689 -35.04345703 89.61352539 C-36.06826172 89.19071289 -37.09306641 88.76790039 -38.14892578 88.33227539 C-40.41729891 87.31101649 -42.64435416 86.25120137 -44.85595703 85.11352539 C-45.51595703 84.78352539 -46.17595703 84.45352539 -46.85595703 84.11352539 C-47.87893625 83.13704523 -48.87499955 82.13221201 -49.85595703 81.11352539 C-50.51595703 80.51540039 -51.17595703 79.91727539 -51.85595703 79.30102539 C-57.24801707 73.40345972 -57.26679846 67.83687842 -57.14892578 60.24633789 C-57.14468094 59.21161346 -57.1404361 58.17688904 -57.13606262 57.11080933 C-57.11932699 53.81977858 -57.08168353 50.52936973 -57.04345703 47.23852539 C-57.02840361 45.00155509 -57.01471636 42.76457516 -57.00244141 40.52758789 C-56.96944026 35.05602306 -56.91929172 29.58481867 -56.85595703 24.11352539 C-56.19595703 24.11352539 -55.53595703 24.11352539 -54.85595703 24.11352539 C-54.77345703 23.20602539 -54.69095703 22.29852539 -54.60595703 21.36352539 C-53.74562775 17.63543182 -52.71533339 16.55240522 -49.85595703 14.11352539 C-48.09995504 12.42256051 -46.94871824 11.29904781 -45.85595703 9.11352539 C-45.17533203 8.98977539 -44.49470703 8.86602539 -43.79345703 8.73852539 C-40.6498979 8.21217362 -40.6498979 8.21217362 -37.35595703 6.23852539 C-26.08543724 0.39061418 -12.45517733 -0.05253579 0 0 Z M73.14404297 20.11352539 C74.14404297 22.11352539 74.14404297 22.11352539 74.14404297 22.11352539 Z M-11.85595703 38.11352539 C-10.85595703 40.11352539 -10.85595703 40.11352539 -10.85595703 40.11352539 Z M-12.85595703 40.11352539 C-12.85595703 45.39352539 -12.85595703 50.67352539 -12.85595703 56.11352539 C-12.52595703 56.11352539 -12.19595703 56.11352539 -11.85595703 56.11352539 C-11.85595703 50.83352539 -11.85595703 45.55352539 -11.85595703 40.11352539 C-12.18595703 40.11352539 -12.51595703 40.11352539 -12.85595703 40.11352539 Z M-11.85595703 57.11352539 C-10.85595703 59.11352539 -10.85595703 59.11352539 -10.85595703 59.11352539 Z M-55.85595703 69.11352539 C-54.85595703 71.11352539 -54.85595703 71.11352539 -54.85595703 71.11352539 Z M-54.85595703 71.11352539 C-53.85595703 73.11352539 -53.85595703 73.11352539 -53.85595703 73.11352539 Z M104.14404297 100.11352539 C105.14404297 102.11352539 105.14404297 102.11352539 105.14404297 102.11352539 Z M105.14404297 104.11352539 C105.14404297 109.39352539 105.14404297 114.67352539 105.14404297 120.11352539 C105.47404297 120.11352539 105.80404297 120.11352539 106.14404297 120.11352539 C106.34076662 118.38538378 106.52601095 116.65593342 106.70654297 114.92602539 C106.81095703 113.9630957 106.91537109 113.00016602 107.02294922 112.00805664 C107.14163048 109.17119162 106.82169936 106.85928868 106.14404297 104.11352539 C105.81404297 104.11352539 105.48404297 104.11352539 105.14404297 104.11352539 Z"></path>
<path transform="translate(801.085693359375,49.86962890625)" fill="#FBFBFB" d="M0 0 C2.63490342 0.00543942 5.26964224 -0.00001669 7.90454102 -0.00634766 C9.57836952 -0.00568818 11.25219792 -0.00440975 12.92602539 -0.00244141 C13.71442307 -0.00446564 14.50282074 -0.00648987 15.31510925 -0.00857544 C20.79930405 0.0153685 20.79930405 0.0153685 21.91430664 1.13037109 C22.00285825 3.7966314 22.02955337 6.43684224 22.01196289 9.10302734 C22.01054794 9.90067001 22.009133 10.69831268 22.00767517 11.52012634 C22.00205981 14.07774545 21.98950476 16.63527827 21.97680664 19.19287109 C21.97179362 20.92268754 21.96723037 22.65250536 21.96313477 24.38232422 C21.95208539 28.63170662 21.9348105 32.88102421 21.91430664 37.13037109 C20.22072021 37.15224487 20.22072021 37.15224487 18.49291992 37.17456055 C14.26198302 37.2329923 10.03155363 37.31021834 5.80102539 37.39282227 C3.97786765 37.42586216 2.15461276 37.45395768 0.33129883 37.47680664 C-15.35788108 37.20280745 -15.35788108 37.20280745 -29.58569336 42.88037109 C-31.54318606 45.81661014 -32.29679089 48.71179372 -33.08569336 52.13037109 C-33.74569336 52.13037109 -34.40569336 52.13037109 -35.08569336 52.13037109 C-36.36763849 57.07565905 -36.25982085 61.98922117 -36.29101562 67.0612793 C-36.30091522 68.05687363 -36.31081482 69.05246796 -36.3210144 70.07823181 C-36.35255179 73.36251463 -36.37735619 76.6468119 -36.40209961 79.93115234 C-36.42267583 82.21087516 -36.44367248 84.49059422 -36.46507263 86.77030945 C-36.52022423 92.76584832 -36.56966401 98.76142123 -36.61791992 104.75701904 C-36.67702554 111.95324674 -36.74321547 119.14941232 -36.80821991 126.34558868 C-36.90614245 137.2738115 -36.99505811 148.20207446 -37.08569336 159.13037109 C-51.93569336 159.13037109 -66.78569336 159.13037109 -82.08569336 159.13037109 C-82.20601979 133.81725587 -82.20601979 133.81725587 -82.23217773 122.94287109 C-82.25004069 115.55217952 -82.27106484 108.16160053 -82.31201172 100.77099609 C-82.34485082 94.80576349 -82.36259771 88.84065179 -82.37032509 82.87533569 C-82.37582484 80.61101379 -82.38656311 78.34669774 -82.40288353 76.08242798 C-82.51608981 59.71010337 -81.4643182 44.74375062 -76.08569336 29.13037109 C-75.75569336 28.16099609 -75.42569336 27.19162109 -75.08569336 26.19287109 C-72.84125273 21.5637123 -67.97600474 18.36836763 -64.08569336 15.13037109 C-63.49916992 14.61990234 -62.91264648 14.10943359 -62.30834961 13.58349609 C-45.3095673 -0.36053676 -20.84492144 -0.05144451 0 0 Z"></path>
<path transform="translate(179.375,45.375)" fill="#EA2A00" d="M0 0 C4.43117848 2.74311049 6.92258181 7.80529271 8.171875 12.8203125 C8.49181247 14.74862361 8.49181247 14.74862361 10.125 16.125 C11.92648695 17.92648695 12.01783903 19.19635613 12.625 21.625 C13.06328125 22.05683594 13.5015625 22.48867187 13.953125 22.93359375 C15.99530347 24.99962944 17.36907072 27.20564082 18.875 29.6875 C19.41640625 30.56535156 19.9578125 31.44320312 20.515625 32.34765625 C20.88171875 33.09917969 21.2478125 33.85070312 21.625 34.625 C20.625 36.625 20.625 36.625 19.625 37.625 C18.27405018 37.71768999 16.91832909 37.74247326 15.56420898 37.73852539 C14.70339218 37.73844986 13.84257538 37.73837433 12.95567322 37.73829651 C12.02026199 37.73313522 11.08485077 37.72797394 10.12109375 37.72265625 C9.16807877 37.7212413 8.21506378 37.71982635 7.23316956 37.71836853 C4.17624835 37.71275152 1.11939923 37.70019616 -1.9375 37.6875 C-4.00455624 37.68248719 -6.07161362 37.67792391 -8.13867188 37.67382812 C-13.21747588 37.66277656 -18.2962257 37.64550055 -23.375 37.625 C-23.68179911 32.91239286 -23.0150629 30.26612316 -20.6015625 26.2265625 C-20.0240625 25.25332031 -19.4465625 24.28007813 -18.8515625 23.27734375 C-18.24054688 22.27832031 -17.62953125 21.27929688 -17 20.25 C-16.39671875 19.22777344 -15.7934375 18.20554687 -15.171875 17.15234375 C-11.85001692 11.62329553 -11.85001692 11.62329553 -10.375 9.625 C-9.715 9.625 -9.055 9.625 -8.375 9.625 C-8.25125 8.696875 -8.1275 7.76875 -8 6.8125 C-7.375 3.625 -7.375 3.625 -5.375 0.625 C-2.375 -0.375 -2.375 -0.375 0 0 Z"></path>
<path transform="translate(889,108)" fill="#DFDFDF" d="M0 0 C0.33 0 0.66 0 1 0 C1 20.13 1 40.26 1 61 C32.02 61 63.04 61 95 61 C95 61.33 95 61.66 95 62 C63.32 62 31.64 62 -1 62 C-1 62.66 -1 63.32 -1 64 C-1.66 64 -2.32 64 -3 64 C-3 45.85 -3 27.7 -3 9 C-2.34 9 -1.68 9 -1 9 C-0.67 6.03 -0.34 3.06 0 0 Z"></path>
<path transform="translate(234,0)" fill="#C9C9C9" d="M0 0 C0.33 0 0.66 0 1 0 C1 68.97 1 137.94 1 209 C0.67 209 0.34 209 0 209 C0 140.03 0 71.06 0 0 Z"></path>
<path transform="translate(574,50)" fill="#848484" d="M0 0 C17.49 0 34.98 0 53 0 C53 0.33 53 0.66 53 1 C36.17 1 19.34 1 2 1 C2 10.9 2 20.8 2 31 C16.85 31 31.7 31 47 31 C47 31.66 47 32.32 47 33 C40.46721214 33.02527002 33.93443679 33.04283292 27.40161133 33.05493164 C25.17732268 33.05997317 22.95303737 33.06680623 20.72875977 33.07543945 C17.53921691 33.08751298 14.34971771 33.09322996 11.16015625 33.09765625 C9.65860741 33.10539818 9.65860741 33.10539818 8.12672424 33.11329651 C7.20584518 33.11337204 6.28496613 33.11344757 5.33618164 33.11352539 C4.52121719 33.115746 3.70625275 33.11796661 2.86659241 33.12025452 C1 33 1 33 0 32 C-0.08838648 29.62458949 -0.11537523 27.2776642 -0.09765625 24.90234375 C-0.09515869 23.60546631 -0.09266113 22.30858887 -0.09008789 20.97241211 C-0.08098389 19.31089111 -0.07187988 17.64937012 -0.0625 15.9375 C-0.041875 10.678125 -0.02125 5.41875 0 0 Z"></path>
<path transform="translate(0,210)" fill="#FCFCFC" d="M0 0 C54.78 0 109.56 0 166 0 C166 0.33 166 0.66 166 1 C111.22 1 56.44 1 0 1 C0 0.67 0 0.34 0 0 Z"></path>
<path transform="translate(841,106)" fill="#E0E0E0" d="M0 0 C0.33 0 0.66 0 1 0 C1 49.5 1 99 1 150 C0.67 150 0.34 150 0 150 C0 100.5 0 51 0 0 Z"></path>
<path transform="translate(17,176)" fill="#C6C6C6" d="M0 0 C45.21 0 90.42 0 137 0 C137 0.33 137 0.66 137 1 C91.79 1 46.58 1 0 1 C0 0.67 0 0.34 0 0 Z"></path>
<path transform="translate(56,114)" fill="#FAFAFA" d="M0 0 C37.29 0 74.58 0 113 0 C113 0.33 113 0.66 113 1 C75.71 1 38.42 1 0 1 C0 0.67 0 0.34 0 0 Z"></path>
<path transform="translate(44,145)" fill="#F8F8F8" d="M0 0 C36.3 0 72.6 0 110 0 C110 0.33 110 0.66 110 1 C73.7 1 37.4 1 0 1 C0 0.67 0 0.34 0 0 Z"></path>
<path transform="translate(717,105)" fill="#D5D5D5" d="M0 0 C0.33 0 0.66 0 1 0 C1 34.32 1 68.64 1 104 C0.67 104 0.34 104 0 104 C0 69.68 0 35.36 0 0 Z"></path>
<path transform="translate(765,107)" fill="#B3B3B3" d="M0 0 C0.33 0 0.66 0 1 0 C1 33.66 1 67.32 1 102 C0.67 102 0.34 102 0 102 C0 68.34 0 34.68 0 0 Z"></path>
<path transform="translate(1130,176)" fill="#999999" d="M0 0 C33.33 0 66.66 0 101 0 C101 0.33 101 0.66 101 1 C67.67 1 34.34 1 0 1 C0 0.67 0 0.34 0 0 Z"></path>
<path transform="translate(527,176)" fill="#999999" d="M0 0 C33.33 0 66.66 0 101 0 C101 0.33 101 0.66 101 1 C67.67 1 34.34 1 0 1 C0 0.67 0 0.34 0 0 Z"></path>
<path transform="translate(446,111)" fill="#868686" d="M0 0 C0.33 0 0.66 0 1 0 C1 32.34 1 64.68 1 98 C0.67 98 0.34 98 0 98 C0 65.66 0 33.32 0 0 Z"></path>
<path transform="translate(398,113)" fill="#E9E9E9" d="M0 0 C0.33 0 0.66 0 1 0 C1 31.68 1 63.36 1 96 C0.67 96 0.34 96 0 96 C0 64.32 0 32.64 0 0 Z"></path>
<path transform="translate(47,48)" fill="#F9F9F9" d="M0 0 C31.02 0 62.04 0 94 0 C94 0.33 94 0.66 94 1 C62.98 1 31.96 1 0 1 C0 0.67 0 0.34 0 0 Z"></path>
<path transform="translate(908,90)" fill="#ADADAD" d="M0 0 C25.74 0 51.48 0 78 0 C78 0.33 78 0.66 78 1 C52.26 1 26.52 1 0 1 C0 0.67 0 0.34 0 0 Z"></path>
<path transform="translate(909,48)" fill="#B9B9B9" d="M0 0 C25.41 0 50.82 0 77 0 C77 0.33 77 0.66 77 1 C51.59 1 26.18 1 0 1 C0 0.67 0 0.34 0 0 Z"></path>
<path transform="translate(57,82)" fill="#FEFEFE" d="M0 0 C22.44 0 44.88 0 68 0 C68 0.33 68 0.66 68 1 C45.56 1 23.12 1 0 1 C0 0.67 0 0.34 0 0 Z"></path>
<path transform="translate(690,98)" fill="#D4D4D4" d="M0 0 C0.33 0 0.66 0 1 0 C1 20.79 1 41.58 1 63 C0.67 63 0.34 63 0 63 C0 42.21 0 21.42 0 0 Z"></path>
<path transform="translate(575,84)" fill="#C5C5C5" d="M0 0 C18.15 0 36.3 0 55 0 C55 0.33 55 0.66 55 1 C36.85 1 18.7 1 0 1 C0 0.67 0 0.34 0 0 Z"></path>
<path transform="translate(1179,84)" fill="#C5C5C5" d="M0 0 C17.82 0 35.64 0 54 0 C54 0.33 54 0.66 54 1 C36.18 1 18.36 1 0 1 C0 0.67 0 0.34 0 0 Z"></path>
<path transform="translate(1178,48)" fill="#BDBDBD" d="M0 0 C17.49 0 34.98 0 53 0 C53 0.33 53 0.66 53 1 C35.51 1 18.02 1 0 1 C0 0.67 0 0.34 0 0 Z"></path>
<path transform="translate(575,48)" fill="#BEBEBE" d="M0 0 C17.16 0 34.32 0 52 0 C52 0.33 52 0.66 52 1 C34.84 1 17.68 1 0 1 C0 0.67 0 0.34 0 0 Z"></path>
<path transform="translate(1091,118)" fill="#D2D2D2" d="M0 0 C0.66 0.33 1.32 0.66 2 1 C0.37807179 2.64886059 -1.24763772 4.2940024 -2.875 5.9375 C-3.77992187 6.85402344 -4.68484375 7.77054687 -5.6171875 8.71484375 C-8 11 -8 11 -10 12 C-11.13350534 14.01669827 -11.13350534 14.01669827 -12 16 C-12.75 14.375 -12.75 14.375 -13 12 C-10.83994388 7.99989607 -9.16009174 5.76488741 -5 4 C-3.31110128 2.6949419 -1.6396721 1.36639342 0 0 Z"></path>
<path transform="translate(156,84)" fill="#EA2A00" d="M0 0 C14.19 0 28.38 0 43 0 C43 0.33 43 0.66 43 1 C28.81 1 14.62 1 0 1 C0 0.67 0 0.34 0 0 Z"></path>
<path transform="translate(865,63)" fill="#CCCCCC" d="M0 0 C-1.57382947 1.65492374 -3.15942902 3.29866024 -4.75 4.9375 C-5.63171875 5.85402344 -6.5134375 6.77054687 -7.421875 7.71484375 C-9.80176695 9.82429343 -10.9099375 10.66067071 -14 11 C-13.67 10.01 -13.34 9.02 -13 8 C-12.34 7.67 -11.68 7.34 -11 7 C-10.690625 6.38125 -10.38125 5.7625 -10.0625 5.125 C-8.55090291 2.10180581 -7.14721311 0.4171684 -3.9375 -0.75 C-2 -1 -2 -1 0 0 Z"></path>
<path transform="translate(784,88)" fill="#CCCCCC" d="M0 0 C12.54 0 25.08 0 38 0 C38 0.33 38 0.66 38 1 C25.46 1 12.92 1 0 1 C0 0.67 0 0.34 0 0 Z"></path>
<path transform="translate(11,59)" fill="#D1D1D1" d="M0 0 C1.65 0 3.3 0 5 0 C1.64026633 4.11018964 -1.60282237 7.94640442 -6 11 C-6.66 11 -7.32 11 -8 11 C-6.65406499 6.47276405 -5.03032175 5.27351483 -1 3 C-0.67 2.01 -0.34 1.02 0 0 Z"></path>
<path transform="translate(784,48)" fill="#BABABA" d="M0 0 C12.54 0 25.08 0 38 0 C38 0.33 38 0.66 38 1 C25.46 1 12.92 1 0 1 C0 0.67 0 0.34 0 0 Z"></path>
<path transform="translate(824,51)" fill="#FFFFFF" d="M0 0 C0.33 0 0.66 0 1 0 C1 11.55 1 23.1 1 35 C0.67 35 0.34 35 0 35 C0 23.45 0 11.9 0 0 Z"></path>
<path transform="translate(1053,113)" fill="#ACACAC" d="M0 0 C0.33 0 0.66 0 1 0 C1 11.22 1 22.44 1 34 C0.67 34 0.34 34 0 34 C0 22.78 0 11.56 0 0 Z"></path>
<path transform="translate(1005,113)" fill="#FFFFFF" d="M0 0 C0.33 0 0.66 0 1 0 C1 11.22 1 22.44 1 34 C0.67 34 0.34 34 0 34 C0 22.78 0 11.56 0 0 Z"></path>
<path transform="translate(471,143)" fill="#DEDEDE" d="M0 0 C0.33 0 0.66 0 1 0 C1 10.89 1 21.78 1 33 C0.67 33 0.34 33 0 33 C0 22.11 0 11.22 0 0 Z"></path>
<path transform="translate(1176,50)" fill="#FBFBFB" d="M0 0 C0.33 0 0.66 0 1 0 C1 10.56 1 21.12 1 32 C0.67 32 0.34 32 0 32 C0 21.44 0 10.88 0 0 Z"></path>
<path transform="translate(572,51)" fill="#BFBFBF" d="M0 0 C0.33 0 0.66 0 1 0 C1 10.23 1 20.46 1 31 C0.67 31 0.34 31 0 31 C0 20.77 0 10.54 0 0 Z"></path>
<path transform="translate(1074,146)" fill="#E8E8E8" d="M0 0 C0.33 0 0.66 0 1 0 C1 8.91 1 17.82 1 27 C0.67 27 0.34 27 0 27 C0 18.09 0 9.18 0 0 Z"></path>
<path transform="translate(209,150)" fill="#E2E2E2" d="M0 0 C0.33 0 0.66 0 1 0 C1 7.92 1 15.84 1 24 C0.67 24 0.34 24 0 24 C0 16.08 0 8.16 0 0 Z"></path>
<path transform="translate(1223,210)" fill="#E4E4E4" d="M0 0 C6.27 0 12.54 0 19 0 C19 0.33 19 0.66 19 1 C12.73 1 6.46 1 0 1 C0 0.67 0 0.34 0 0 Z"></path>
<path transform="translate(619,210)" fill="#E9E9E9" d="M0 0 C6.27 0 12.54 0 19 0 C19 0.33 19 0.66 19 1 C12.73 1 6.46 1 0 1 C0 0.67 0 0.34 0 0 Z"></path>
<path transform="translate(978,210)" fill="#E9E9E9" d="M0 0 C5.94 0 11.88 0 18 0 C18 0.33 18 0.66 18 1 C12.06 1 6.12 1 0 1 C0 0.67 0 0.34 0 0 Z"></path>
<path transform="translate(513,210)" fill="#E3E3E3" d="M0 0 C5.28 0 10.56 0 16 0 C16 0.33 16 0.66 16 1 C10.72 1 5.44 1 0 1 C0 0.67 0 0.34 0 0 Z"></path>
<path transform="translate(1117,210)" fill="#E9E9E9" d="M0 0 C4.95 0 9.9 0 15 0 C15 0.33 15 0.66 15 1 C10.05 1 5.1 1 0 1 C0 0.67 0 0.34 0 0 Z"></path>
<path transform="translate(1052,147)" fill="#EBEBEB" d="M0 0 C0.33 0 0.66 0 1 0 C1 4.29 1 8.58 1 13 C0.67 13 0.34 13 0 13 C0 8.71 0 4.42 0 0 Z"></path>
<path transform="translate(986,49)" fill="#DFDFDF" d="M0 0 C4.29 0 8.58 0 13 0 C13 0.33 13 0.66 13 1 C8.71 1 4.42 1 0 1 C0 0.67 0 0.34 0 0 Z"></path>
<path transform="translate(896,49)" fill="#E5E5E5" d="M0 0 C4.29 0 8.58 0 13 0 C13 0.33 13 0.66 13 1 C8.71 1 4.42 1 0 1 C0 0.67 0 0.34 0 0 Z"></path>
<path transform="translate(1052,101)" fill="#EAEAEA" d="M0 0 C0.33 0 0.66 0 1 0 C1 3.96 1 7.92 1 12 C0.67 12 0.34 12 0 12 C0 8.04 0 4.08 0 0 Z"></path>
<path transform="translate(445,99)" fill="#E3E3E3" d="M0 0 C0.33 0 0.66 0 1 0 C1 3.96 1 7.92 1 12 C0.67 12 0.34 12 0 12 C0 8.04 0 4.08 0 0 Z"></path>
<path transform="translate(772,49)" fill="#DFDFDF" d="M0 0 C3.96 0 7.92 0 12 0 C12 0.33 12 0.66 12 1 C8.04 1 4.08 1 0 1 C0 0.67 0 0.34 0 0 Z"></path>
<path transform="translate(379,49)" fill="#E8E8E8" d="M0 0 C3.96 0 7.92 0 12 0 C12 0.33 12 0.66 12 1 C8.04 1 4.08 1 0 1 C0 0.67 0 0.34 0 0 Z"></path>
<path transform="translate(1231,49)" fill="#EAEAEA" d="M0 0 C3.63 0 7.26 0 11 0 C11 0.33 11 0.66 11 1 C7.37 1 3.74 1 0 1 C0 0.67 0 0.34 0 0 Z"></path>
<path transform="translate(628,49)" fill="#E2E2E2" d="M0 0 C3.63 0 7.26 0 11 0 C11 0.33 11 0.66 11 1 C7.37 1 3.74 1 0 1 C0 0.67 0 0.34 0 0 Z"></path>
<path transform="translate(37,49)" fill="#E3E3E3" d="M0 0 C3.3 0 6.6 0 10 0 C10 0.33 10 0.66 10 1 C6.7 1 3.4 1 0 1 C0 0.67 0 0.34 0 0 Z"></path>
<path transform="translate(35,144)" fill="#E5E5E5" d="M0 0 C2.97 0 5.94 0 9 0 C9 0.33 9 0.66 9 1 C6.03 1 3.06 1 0 1 C0 0.67 0 0.34 0 0 Z"></path>
<path transform="translate(842,97)" fill="#E4E4E4" d="M0 0 C0.33 0 0.66 0 1 0 C1 2.97 1 5.94 1 9 C0.67 9 0.34 9 0 9 C0 6.03 0 3.06 0 0 Z"></path>
<path transform="translate(996,209)" fill="#E3E3E3" d="M0 0 C2.64 0 5.28 0 8 0 C8 0.33 8 0.66 8 1 C5.36 1 2.72 1 0 1 C0 0.67 0 0.34 0 0 Z"></path>
<path transform="translate(638,209)" fill="#DFDFDF" d="M0 0 C2.64 0 5.28 0 8 0 C8 0.33 8 0.66 8 1 C5.36 1 2.72 1 0 1 C0 0.67 0 0.34 0 0 Z"></path>
<path transform="translate(689,161)" fill="#E7E7E7" d="M0 0 C0.33 0 0.66 0 1 0 C1 2.64 1 5.28 1 8 C0.67 8 0.34 8 0 8 C0 5.36 0 2.72 0 0 Z"></path>
<path transform="translate(1110,109)" fill="#DFDFDF" d="M0 0 C2.64 0 5.28 0 8 0 C8 0.33 8 0.66 8 1 C5.36 1 2.72 1 0 1 C0 0.67 0 0.34 0 0 Z"></path>
<path transform="translate(507,109)" fill="#E6E6E6" d="M0 0 C2.64 0 5.28 0 8 0 C8 0.33 8 0.66 8 1 C5.36 1 2.72 1 0 1 C0 0.67 0 0.34 0 0 Z"></path>
<path transform="translate(1242,209)" fill="#E5E5E5" d="M0 0 C2.31 0 4.62 0 7 0 C7 0.33 7 0.66 7 1 C4.69 1 2.38 1 0 1 C0 0.67 0 0.34 0 0 Z"></path>
<path transform="translate(1110,209)" fill="#DEDEDE" d="M0 0 C2.31 0 4.62 0 7 0 C7 0.33 7 0.66 7 1 C4.69 1 2.38 1 0 1 C0 0.67 0 0.34 0 0 Z"></path>
<path transform="translate(166,209)" fill="#E7E7E7" d="M0 0 C2.31 0 4.62 0 7 0 C7 0.33 7 0.66 7 1 C4.69 1 2.38 1 0 1 C0 0.67 0 0.34 0 0 Z"></path>
<path transform="translate(1084,195)" fill="#D5D5D5" d="M0 0 C1.32 1.32 2.64 2.64 4 4 C2.68 3.34 1.36 2.68 0 2 C0 1.34 0 0.68 0 0 Z"></path>
<path transform="translate(1245,156)" fill="#C0C0C0" d="M0 0 C0.33 0 0.66 0 1 0 C1 2.31 1 4.62 1 7 C0.67 7 0.34 7 0 7 C0 4.69 0 2.38 0 0 Z"></path>
<path transform="translate(1004,148)" fill="#D9D9D9" d="M0 0 C0.33 0 0.66 0 1 0 C1 2.31 1 4.62 1 7 C0.67 7 0.34 7 0 7 C0 4.69 0 2.38 0 0 Z"></path>
<path transform="translate(1075,139)" fill="#E5E5E5" d="M0 0 C0.33 0 0.66 0 1 0 C1 2.31 1 4.62 1 7 C0.67 7 0.34 7 0 7 C0 4.69 0 2.38 0 0 Z"></path>
<path transform="translate(482,120)" fill="#D5D5D5" d="M0 0 C0.66 0.33 1.32 0.66 2 1 C0.68 1.99 -0.64 2.98 -2 4 C-1.34 2.68 -0.68 1.36 0 0 Z"></path>
<path transform="translate(169,115)" fill="#D8D8D8" d="M0 0 C2.31 0 4.62 0 7 0 C7 0.33 7 0.66 7 1 C4.69 1 2.38 1 0 1 C0 0.67 0 0.34 0 0 Z"></path>
<path transform="translate(1004,105)" fill="#DADADA" d="M0 0 C0.33 0 0.66 0 1 0 C1 2.31 1 4.62 1 7 C0.67 7 0.34 7 0 7 C0 4.69 0 2.38 0 0 Z"></path>
<path transform="translate(718,98)" fill="#E5E5E5" d="M0 0 C0.33 0 0.66 0 1 0 C1 2.31 1 4.62 1 7 C0.67 7 0.34 7 0 7 C0 4.69 0 2.38 0 0 Z"></path>
<path transform="translate(889,50)" fill="#E2E2E2" d="M0 0 C2.31 0 4.62 0 7 0 C7 0.33 7 0.66 7 1 C4.69 1 2.38 1 0 1 C0 0.67 0 0.34 0 0 Z"></path>
<path transform="translate(507,209)" fill="#E2E2E2" d="M0 0 C1.98 0 3.96 0 6 0 C6 0.33 6 0.66 6 1 C4.02 1 2.04 1 0 1 C0 0.67 0 0.34 0 0 Z"></path>
<path transform="translate(1075,173)" fill="#E8E8E8" d="M0 0 C0.33 0 0.66 0 1 0 C1 1.98 1 3.96 1 6 C0.67 6 0.34 6 0 6 C0 4.02 0 2.04 0 0 Z"></path>
<path transform="translate(985,168)" fill="#E1E1E1" d="M0 0 C1.98 0 3.96 0 6 0 C6 0.33 6 0.66 6 1 C4.02 1 2.04 1 0 1 C0 0.67 0 0.34 0 0 Z"></path>
<path transform="translate(1051,160)" fill="#DADADA" d="M0 0 C0.33 0 0.66 0 1 0 C1 1.98 1 3.96 1 6 C0.67 6 0.34 6 0 6 C0 4.02 0 2.04 0 0 Z"></path>
<path transform="translate(29,143)" fill="#DDDDDD" d="M0 0 C1.98 0 3.96 0 6 0 C6 0.33 6 0.66 6 1 C4.02 1 2.04 1 0 1 C0 0.67 0 0.34 0 0 Z"></path>
<path transform="translate(1245,96)" fill="#CACACA" d="M0 0 C0.33 0 0.66 0 1 0 C1 1.98 1 3.96 1 6 C0.67 6 0.34 6 0 6 C0 4.02 0 2.04 0 0 Z"></path>
<path transform="translate(1051,94)" fill="#DBDBDB" d="M0 0 C0.33 0 0.66 0 1 0 C1 1.98 1 3.96 1 6 C0.67 6 0.34 6 0 6 C0 4.02 0 2.04 0 0 Z"></path>
<path transform="translate(689,92)" fill="#E6E6E6" d="M0 0 C0.33 0 0.66 0 1 0 C1 1.98 1 3.96 1 6 C0.67 6 0.34 6 0 6 C0 4.02 0 2.04 0 0 Z"></path>
<path transform="translate(378,91)" fill="#DCDCDC" d="M0 0 C1.98 0 3.96 0 6 0 C6 0.33 6 0.66 6 1 C4.02 1 2.04 1 0 1 C0 0.67 0 0.34 0 0 Z"></path>
<path transform="translate(1243,50)" fill="#DCDCDC" d="M0 0 C1.98 0 3.96 0 6 0 C6 0.33 6 0.66 6 1 C4.02 1 2.04 1 0 1 C0 0.67 0 0.34 0 0 Z"></path>
<path transform="translate(999,50)" fill="#E4E4E4" d="M0 0 C1.98 0 3.96 0 6 0 C6 0.33 6 0.66 6 1 C4.02 1 2.04 1 0 1 C0 0.67 0 0.34 0 0 Z"></path>
<path transform="translate(766,50)" fill="#E3E3E3" d="M0 0 C1.98 0 3.96 0 6 0 C6 0.33 6 0.66 6 1 C4.02 1 2.04 1 0 1 C0 0.67 0 0.34 0 0 Z"></path>
<path transform="translate(639,50)" fill="#E6E6E6" d="M0 0 C1.98 0 3.96 0 6 0 C6 0.33 6 0.66 6 1 C4.02 1 2.04 1 0 1 C0 0.67 0 0.34 0 0 Z"></path>
<path transform="translate(392,50)" fill="#E5E5E5" d="M0 0 C1.98 0 3.96 0 6 0 C6 0.33 6 0.66 6 1 C4.02 1 2.04 1 0 1 C0 0.67 0 0.34 0 0 Z"></path>
<path transform="translate(1249,208)" fill="#E0E0E0" d="M0 0 C1.65 0 3.3 0 5 0 C5 0.33 5 0.66 5 1 C3.35 1 1.7 1 0 1 C0 0.67 0 0.34 0 0 Z"></path>
<path transform="translate(1004,208)" fill="#E0E0E0" d="M0 0 C1.65 0 3.3 0 5 0 C5 0.33 5 0.66 5 1 C3.35 1 1.7 1 0 1 C0 0.67 0 0.34 0 0 Z"></path>
<path transform="translate(646,208)" fill="#DEDEDE" d="M0 0 C1.65 0 3.3 0 5 0 C5 0.33 5 0.66 5 1 C3.35 1 1.7 1 0 1 C0 0.67 0 0.34 0 0 Z"></path>
<path transform="translate(173,208)" fill="#E3E3E3" d="M0 0 C1.65 0 3.3 0 5 0 C5 0.33 5 0.66 5 1 C3.35 1 1.7 1 0 1 C0 0.67 0 0.34 0 0 Z"></path>
<path transform="translate(472,176)" fill="#E7E7E7" d="M0 0 C0.33 0 0.66 0 1 0 C1 1.65 1 3.3 1 5 C0.67 5 0.34 5 0 5 C0 3.35 0 1.7 0 0 Z"></path>
<path transform="translate(208,175)" fill="#E8E8E8" d="M0 0 C0.33 0 0.66 0 1 0 C1 1.65 1 3.3 1 5 C0.67 5 0.34 5 0 5 C0 3.35 0 1.7 0 0 Z"></path>
<path transform="translate(208,144)" fill="#E2E2E2" d="M0 0 C0.33 0 0.66 0 1 0 C1 1.65 1 3.3 1 5 C0.67 5 0.34 5 0 5 C0 3.35 0 1.7 0 0 Z"></path>
<path transform="translate(51,113)" fill="#D3D3D3" d="M0 0 C1.65 0 3.3 0 5 0 C5 0.33 5 0.66 5 1 C3.35 1 1.7 1 0 1 C0 0.67 0 0.34 0 0 Z"></path>
<path transform="translate(502,110)" fill="#D3D3D3" d="M0 0 C1.65 0 3.3 0 5 0 C5 0.33 5 0.66 5 1 C3.35 1 1.7 1 0 1 C0 0.67 0 0.34 0 0 Z"></path>
<path transform="translate(890,103)" fill="#D8D8D8" d="M0 0 C0.33 0 0.66 0 1 0 C1 1.65 1 3.3 1 5 C0.67 5 0.34 5 0 5 C0 3.35 0 1.7 0 0 Z"></path>
<path transform="translate(444,94)" fill="#E2E2E2" d="M0 0 C0.33 0 0.66 0 1 0 C1 1.65 1 3.3 1 5 C0.67 5 0.34 5 0 5 C0 3.35 0 1.7 0 0 Z"></path>
<path transform="translate(719,93)" fill="#E1E1E1" d="M0 0 C0.33 0 0.66 0 1 0 C1 1.65 1 3.3 1 5 C0.67 5 0.34 5 0 5 C0 3.35 0 1.7 0 0 Z"></path>
<path transform="translate(986,91)" fill="#DEDEDE" d="M0 0 C1.65 0 3.3 0 5 0 C5 0.33 5 0.66 5 1 C3.35 1 1.7 1 0 1 C0 0.67 0 0.34 0 0 Z"></path>
<path transform="translate(903,91)" fill="#C5C5C5" d="M0 0 C1.65 0 3.3 0 5 0 C5 0.33 5 0.66 5 1 C3.35 1 1.7 1 0 1 C0 0.67 0 0.34 0 0 Z"></path>
<path transform="translate(779,89)" fill="#CECECE" d="M0 0 C1.65 0 3.3 0 5 0 C5 0.33 5 0.66 5 1 C3.35 1 1.7 1 0 1 C0 0.67 0 0.34 0 0 Z"></path>
<path transform="translate(1005,51)" fill="#DCDCDC" d="M0 0 C1.65 0 3.3 0 5 0 C5 0.33 5 0.66 5 1 C3.35 1 1.7 1 0 1 C0 0.67 0 0.34 0 0 Z"></path>
<path transform="translate(645,51)" fill="#D3D3D3" d="M0 0 C1.65 0 3.3 0 5 0 C5 0.33 5 0.66 5 1 C3.35 1 1.7 1 0 1 C0 0.67 0 0.34 0 0 Z"></path>
<path transform="translate(398,51)" fill="#DBDBDB" d="M0 0 C1.65 0 3.3 0 5 0 C5 0.33 5 0.66 5 1 C3.35 1 1.7 1 0 1 C0 0.67 0 0.34 0 0 Z"></path>
<path transform="translate(32,50)" fill="#E3E3E3" d="M0 0 C1.65 0 3.3 0 5 0 C5 0.33 5 0.66 5 1 C3.35 1 1.7 1 0 1 C0 0.67 0 0.34 0 0 Z"></path>
<path transform="translate(1106,208)" fill="#DADADA" d="M0 0 C4 1 4 1 4 1 Z"></path>
<path transform="translate(503,208)" fill="#E5E5E5" d="M0 0 C4 1 4 1 4 1 Z"></path>
<path transform="translate(1254,207)" fill="#E7E7E7" d="M0 0 C4 1 4 1 4 1 Z"></path>
<path transform="translate(1009,207)" fill="#E4E4E4" d="M0 0 C4 1 4 1 4 1 Z"></path>
<path transform="translate(651,207)" fill="#D2D2D2" d="M0 0 C4 1 4 1 4 1 Z"></path>
<path transform="translate(1258,206)" fill="#D6D6D6" d="M0 0 C4 1 4 1 4 1 Z"></path>
<path transform="translate(1013,206)" fill="#D9D9D9" d="M0 0 C4 1 4 1 4 1 Z"></path>
<path transform="translate(1231,175)" fill="#DBDBDB" d="M0 0 C4 1 4 1 4 1 Z"></path>
<path transform="translate(628,175)" fill="#DCDCDC" d="M0 0 C4 1 4 1 4 1 Z"></path>
<path transform="translate(1291,171)" fill="#E2E2E2" d="M0 0 C1 4 1 4 1 4 Z"></path>
<path transform="translate(1242,169)" fill="#D4D4D4" d="M0 0 C0 3 0 3 0 3 Z"></path>
<path transform="translate(688,169)" fill="#E5E5E5" d="M0 0 C1 4 1 4 1 4 Z"></path>
<path transform="translate(207,140)" fill="#DFDFDF" d="M0 0 C1 4 1 4 1 4 Z"></path>
<path transform="translate(1128,140)" fill="#CFCFCF" d="M0 0 C4 1 4 1 4 1 Z"></path>
<path transform="translate(524,140)" fill="#E5E5E5" d="M0 0 C4 1 4 1 4 1 Z"></path>
<path transform="translate(176,116)" fill="#D9D9D9" d="M0 0 C4 1 4 1 4 1 Z"></path>
<path transform="translate(1102,111)" fill="#E4E4E4" d="M0 0 C4 1 4 1 4 1 Z"></path>
<path transform="translate(1106,110)" fill="#DEDEDE" d="M0 0 C4 1 4 1 4 1 Z"></path>
<path transform="translate(766,102)" fill="#DFDFDF" d="M0 0 C1 4 1 4 1 4 Z"></path>
<path transform="translate(1050,90)" fill="#E7E7E7" d="M0 0 C1 4 1 4 1 4 Z"></path>
<path transform="translate(720,89)" fill="#E2E2E2" d="M0 0 C1 4 1 4 1 4 Z"></path>
<path transform="translate(443,89)" fill="#D3D3D3" d="M0 0 C1 4 1 4 1 4 Z"></path>
<path transform="translate(688,88)" fill="#ECECEC" d="M0 0 C1 4 1 4 1 4 Z"></path>
<path transform="translate(1291,86)" fill="#E5E5E5" d="M0 0 C1 4 1 4 1 4 Z"></path>
<path transform="translate(1239,87)" fill="#D2D2D2" d="M0 0 C0.99 0.33 1.98 0.66 3 1 C2.01 1 1.02 1 0 1 C0 0.67 0 0.34 0 0 Z"></path>
<path transform="translate(1233,85)" fill="#DBDBDB" d="M0 0 C4 1 4 1 4 1 Z"></path>
<path transform="translate(52,83)" fill="#D1D1D1" d="M0 0 C4 1 4 1 4 1 Z"></path>
<path transform="translate(1253,52)" fill="#D9D9D9" d="M0 0 C4 1 4 1 4 1 Z"></path>
<path transform="translate(1010,52)" fill="#E3E3E3" d="M0 0 C4 1 4 1 4 1 Z"></path>
<path transform="translate(758,52)" fill="#ECECEC" d="M0 0 C4 1 4 1 4 1 Z"></path>
<path transform="translate(403,52)" fill="#DFDFDF" d="M0 0 C4 1 4 1 4 1 Z"></path>
<path transform="translate(24,52)" fill="#D5D5D5" d="M0 0 C4 1 4 1 4 1 Z"></path>
<path transform="translate(1249,51)" fill="#D4D4D4" d="M0 0 C4 1 4 1 4 1 Z"></path>
<path transform="translate(885,51)" fill="#E1E1E1" d="M0 0 C4 1 4 1 4 1 Z"></path>
<path transform="translate(762,51)" fill="#E2E2E2" d="M0 0 C4 1 4 1 4 1 Z"></path>
<path transform="translate(28,51)" fill="#E8E8E8" d="M0 0 C4 1 4 1 4 1 Z"></path>
<path transform="translate(1103,207)" fill="#E8E8E8" d="M0 0 C3 1 3 1 3 1 Z"></path>
<path transform="translate(499,207)" fill="#D6D6D6" d="M0 0 C3 1 3 1 3 1 Z"></path>
<path transform="translate(178,207)" fill="#E4E4E4" d="M0 0 C3 1 3 1 3 1 Z"></path>
<path transform="translate(655,206)" fill="#E0E0E0" d="M0 0 C3 1 3 1 3 1 Z"></path>
<path transform="translate(496,206)" fill="#DCDCDC" d="M0 0 C3 1 3 1 3 1 Z"></path>
<path transform="translate(181,206)" fill="#E8E8E8" d="M0 0 C3 1 3 1 3 1 Z"></path>
<path transform="translate(1097,205)" fill="#DADADA" d="M0 0 C3 1 3 1 3 1 Z"></path>
<path transform="translate(658,205)" fill="#DBDBDB" d="M0 0 C3 1 3 1 3 1 Z"></path>
<path transform="translate(184,205)" fill="#D6D6D6" d="M0 0 C3 1 3 1 3 1 Z"></path>
<path transform="translate(1264,204)" fill="#D0D0D0" d="M0 0 C3 1 3 1 3 1 Z"></path>
<path transform="translate(0,0)" fill="#E1E1E1" d=""></path>
<path transform="translate(0,0)" fill="#E1E1E1" d=""></path>
<path transform="translate(0,0)" fill="#E5E5E5" d=""></path>
<path transform="translate(0,0)" fill="#E2E2E2" d=""></path>
<path transform="translate(0,0)" fill="#EAEAEA" d=""></path>
<path transform="translate(1127,175)" fill="#DADADA" d="M0 0 C3 1 3 1 3 1 Z"></path>
<path transform="translate(0,0)" fill="#D4D4D4" d=""></path>
<path transform="translate(0,0)" fill="#DCDCDC" d=""></path>
<path transform="translate(154,175)" fill="#DFDFDF" d="M0 0 C3 1 3 1 3 1 Z"></path>
<path transform="translate(1235,174)" fill="#E0E0E0" d="M0 0 C3 1 3 1 3 1 Z"></path>
<path transform="translate(991,167)" fill="#DDDDDD" d="M0 0 C3 1 3 1 3 1 Z"></path>
<path transform="translate(994,166)" fill="#CCCCCC" d="M0 0 C3 1 3 1 3 1 Z"></path>
<path transform="translate(0,0)" fill="#D1D1D1" d=""></path>
<path transform="translate(0,0)" fill="#D3D3D3" d=""></path>
<path transform="translate(154,146)" fill="#DFDFDF" d="M0 0 C3 1 3 1 3 1 Z"></path>
<path transform="translate(26,142)" fill="#E4E4E4" d="M0 0 C3 1 3 1 3 1 Z"></path>
<path transform="translate(23,141)" fill="#EEEEEE" d="M0 0 C3 1 3 1 3 1 Z"></path>
<path transform="translate(0,0)" fill="#DCDCDC" d=""></path>
<path transform="translate(183,118)" fill="#E3E3E3" d="M0 0 C3 1 3 1 3 1 Z"></path>
<path transform="translate(180,117)" fill="#E3E3E3" d="M0 0 C3 1 3 1 3 1 Z"></path>
<path transform="translate(1094,114)" fill="#DBDBDB" d="M0 0 C3 1 3 1 3 1 Z"></path>
<path transform="translate(493,113)" fill="#DEDEDE" d="M0 0 C3 1 3 1 3 1 Z"></path>
<path transform="translate(1099,112)" fill="#DFDFDF" d="M0 0 C3 1 3 1 3 1 Z"></path>
<path transform="translate(499,111)" fill="#E4E4E4" d="M0 0 C3 1 3 1 3 1 Z"></path>
<path transform="translate(994,93)" fill="#D2D2D2" d="M0 0 C3 1 3 1 3 1 Z"></path>
<path transform="translate(991,92)" fill="#D2D2D2" d="M0 0 C3 1 3 1 3 1 Z"></path>
<path transform="translate(900,92)" fill="#C1C1C1" d="M0 0 C3 1 3 1 3 1 Z"></path>
<path transform="translate(384,92)" fill="#DCDCDC" d="M0 0 C3 1 3 1 3 1 Z"></path>
<path transform="translate(776,90)" fill="#D9D9D9" d="M0 0 C3 1 3 1 3 1 Z"></path>
<path transform="translate(0,0)" fill="#E2E2E2" d=""></path>
<path transform="translate(0,0)" fill="#E4E4E4" d=""></path>
<path transform="translate(0,0)" fill="#EAEAEA" d=""></path>
<path transform="translate(630,85)" fill="#E3E3E3" d="M0 0 C3 1 3 1 3 1 Z"></path>
<path transform="translate(0,0)" fill="#E4E4E4" d=""></path>
<path transform="translate(0,0)" fill="#D7D7D7" d=""></path>
<path transform="translate(1262,55)" fill="#E2E2E2" d="M0 0 C3 1 3 1 3 1 Z"></path>
<path transform="translate(1017,54)" fill="#E2E2E2" d="M0 0 C3 1 3 1 3 1 Z"></path>
<path transform="translate(752,54)" fill="#E3E3E3" d="M0 0 C3 1 3 1 3 1 Z"></path>
<path transform="translate(656,54)" fill="#E1E1E1" d="M0 0 C3 1 3 1 3 1 Z"></path>
<path transform="translate(410,54)" fill="#E1E1E1" d="M0 0 C3 1 3 1 3 1 Z"></path>
<path transform="translate(1257,53)" fill="#DDDDDD" d="M0 0 C3 1 3 1 3 1 Z"></path>
<path transform="translate(1014,53)" fill="#E4E4E4" d="M0 0 C3 1 3 1 3 1 Z"></path>
<path transform="translate(877,53)" fill="#DCDCDC" d="M0 0 C3 1 3 1 3 1 Z"></path>
<path transform="translate(755,53)" fill="#EAEAEA" d="M0 0 C3 1 3 1 3 1 Z"></path>
<path transform="translate(653,53)" fill="#ECECEC" d="M0 0 C3 1 3 1 3 1 Z"></path>
<path transform="translate(407,53)" fill="#E5E5E5" d="M0 0 C3 1 3 1 3 1 Z"></path>
<path transform="translate(881,52)" fill="#E5E5E5" d="M0 0 C3 1 3 1 3 1 Z"></path>
<path transform="translate(650,52)" fill="#E3E3E3" d="M0 0 C3 1 3 1 3 1 Z"></path>
<path transform="translate(1100,206)" fill="#E4E4E4" d="M0 0 C2 1 2 1 2 1 Z"></path>
<path transform="translate(1262,205)" fill="#E2E2E2" d="M0 0 C2 1 2 1 2 1 Z"></path>
<path transform="translate(1017,205)" fill="#E7E7E7" d="M0 0 C2 1 2 1 2 1 Z"></path>
<path transform="translate(494,205)" fill="#E1E1E1" d="M0 0 C2 1 2 1 2 1 Z"></path>
<path transform="translate(1095,204)" fill="#E2E2E2" d="M0 0 C2 1 2 1 2 1 Z"></path>
<path transform="translate(1020,204)" fill="#D2D2D2" d="M0 0 C2 1 2 1 2 1 Z"></path>
<path transform="translate(661,204)" fill="#E8E8E8" d="M0 0 C2 1 2 1 2 1 Z"></path>
<path transform="translate(492,204)" fill="#E8E8E8" d="M0 0 C2 1 2 1 2 1 Z"></path>
<path transform="translate(187,204)" fill="#DFDFDF" d="M0 0 C2 1 2 1 2 1 Z"></path>
<path transform="translate(1267,203)" fill="#E2E2E2" d="M0 0 C2 1 2 1 2 1 Z"></path>
<path transform="translate(1093,203)" fill="#DBDBDB" d="M0 0 C2 1 2 1 2 1 Z"></path>
<path transform="translate(1022,203)" fill="#DFDFDF" d="M0 0 C2 1 2 1 2 1 Z"></path>
<path transform="translate(663,203)" fill="#E9E9E9" d="M0 0 C2 1 2 1 2 1 Z"></path>
<path transform="translate(490,203)" fill="#E6E6E6" d="M0 0 C2 1 2 1 2 1 Z"></path>
<path transform="translate(189,203)" fill="#D5D5D5" d="M0 0 C2 1 2 1 2 1 Z"></path>
<path transform="translate(1269,202)" fill="#C0C0C0" d="M0 0 C2 1 2 1 2 1 Z"></path>
<path transform="translate(1024,202)" fill="#E8E8E8" d="M0 0 C2 1 2 1 2 1 Z"></path>
<path transform="translate(665,202)" fill="#ECECEC" d="M0 0 C2 1 2 1 2 1 Z"></path>
<path transform="translate(488,202)" fill="#DCDCDC" d="M0 0 C2 1 2 1 2 1 Z"></path>
<path transform="translate(1090,201)" fill="#E2E2E2" d="M0 0 C2 1 2 1 2 1 Z"></path>
<path transform="translate(1026,201)" fill="#DEDEDE" d="M0 0 C2 1 2 1 2 1 Z"></path>
<path transform="translate(667,201)" fill="#DFDFDF" d="M0 0 C2 1 2 1 2 1 Z"></path>
<path transform="translate(192,201)" fill="#E4E4E4" d="M0 0 C2 1 2 1 2 1 Z"></path>
<path transform="translate(1272,200)" fill="#DEDEDE" d="M0 0 C2 1 2 1 2 1 Z"></path>
<path transform="translate(670,199)" fill="#DADADA" d="M0 0 C2 1 2 1 2 1 Z"></path>
<path transform="translate(1276,197)" fill="#D1D1D1" d="M0 0 C2 1 2 1 2 1 Z"></path>
<path transform="translate(1032,197)" fill="#D3D3D3" d="M0 0 C2 1 2 1 2 1 Z"></path>
<path transform="translate(0,0)" fill="#ECECEC" d=""></path>
<path transform="translate(0,0)" fill="#E4E4E4" d=""></path>
<path transform="translate(0,0)" fill="#E4E4E4" d=""></path>
<path transform="translate(0,0)" fill="#EDEDED" d=""></path>
<path transform="translate(0,0)" fill="#EDEDED" d=""></path>
<path transform="translate(0,0)" fill="#EDEDED" d=""></path>
<path transform="translate(0,0)" fill="#F3F3F3" d=""></path>
<path transform="translate(0,0)" fill="#E6E6E6" d=""></path>
<path transform="translate(0,0)" fill="#E8E8E8" d=""></path>
<path transform="translate(524,175)" fill="#E1E1E1" d="M0 0 C2 1 2 1 2 1 Z"></path>
<path transform="translate(632,174)" fill="#D7D7D7" d="M0 0 C2 1 2 1 2 1 Z"></path>
<path transform="translate(522,174)" fill="#CECECE" d="M0 0 C2 1 2 1 2 1 Z"></path>
<path transform="translate(634,173)" fill="#D5D5D5" d="M0 0 C2 1 2 1 2 1 Z"></path>
<path transform="translate(157,147)" fill="#D9D9D9" d="M0 0 C2 1 2 1 2 1 Z"></path>
<path transform="translate(1126,141)" fill="#D7D7D7" d="M0 0 C2 1 2 1 2 1 Z"></path>
<path transform="translate(20,140)" fill="#DCDCDC" d="M0 0 C2 1 2 1 2 1 Z"></path>
<path transform="translate(0,0)" fill="#E9E9E9" d=""></path>
<path transform="translate(18,139)" fill="#E9E9E9" d="M0 0 C2 1 2 1 2 1 Z"></path>
<path transform="translate(16,138)" fill="#E4E4E4" d="M0 0 C2 1 2 1 2 1 Z"></path>
<path transform="translate(14,137)" fill="#D6D6D6" d="M0 0 C2 1 2 1 2 1 Z"></path>
<path transform="translate(0,0)" fill="#EEEEEE" d=""></path>
<path transform="translate(192,122)" fill="#D9D9D9" d="M0 0 C2 1 2 1 2 1 Z"></path>
<path transform="translate(190,121)" fill="#EAEAEA" d="M0 0 C2 1 2 1 2 1 Z"></path>
<path transform="translate(188,120)" fill="#EDEDED" d="M0 0 C2 1 2 1 2 1 Z"></path>
<path transform="translate(186,119)" fill="#EFEFEF" d="M0 0 C2 1 2 1 2 1 Z"></path>
<path transform="translate(1088,118)" fill="#DDDDDD" d="M0 0 C2 1 2 1 2 1 Z"></path>
<path transform="translate(486,117)" fill="#E3E3E3" d="M0 0 C2 1 2 1 2 1 Z"></path>
<path transform="translate(1091,116)" fill="#E5E5E5" d="M0 0 C2 1 2 1 2 1 Z"></path>
<path transform="translate(489,115)" fill="#DDDDDD" d="M0 0 C2 1 2 1 2 1 Z"></path>
<path transform="translate(491,114)" fill="#DCDCDC" d="M0 0 C2 1 2 1 2 1 Z"></path>
<path transform="translate(1097,113)" fill="#EEEEEE" d="M0 0 C2 1 2 1 2 1 Z"></path>
<path transform="translate(496,112)" fill="#E4E4E4" d="M0 0 C2 1 2 1 2 1 Z"></path>
<path transform="translate(49,112)" fill="#E4E4E4" d="M0 0 C2 1 2 1 2 1 Z"></path>
<path transform="translate(389,94)" fill="#C7C7C7" d="M0 0 C2 1 2 1 2 1 Z"></path>
<path transform="translate(387,93)" fill="#C9C9C9" d="M0 0 C2 1 2 1 2 1 Z"></path>
<path transform="translate(772,92)" fill="#DEDEDE" d="M0 0 C2 1 2 1 2 1 Z"></path>
<path transform="translate(774,91)" fill="#D8D8D8" d="M0 0 C2 1 2 1 2 1 Z"></path>
<path transform="translate(1237,86)" fill="#E6E6E6" d="M0 0 C2 1 2 1 2 1 Z"></path>
<path transform="translate(0,0)" fill="#EFEFEF" d=""></path>
<path transform="translate(0,0)" fill="#EAEAEA" d=""></path>
<path transform="translate(0,0)" fill="#DEDEDE" d=""></path>
<path transform="translate(0,0)" fill="#F1F1F1" d=""></path>
<path transform="translate(0,0)" fill="#E7E7E7" d=""></path>
<path transform="translate(0,0)" fill="#EA2A00" d=""></path>
<path transform="translate(0,0)" fill="#F5F5F5" d=""></path>
<path transform="translate(0,0)" fill="#EA2A00" d=""></path>
<path transform="translate(1273,61)" fill="#DBDBDB" d="M0 0 C2 1 2 1 2 1 Z"></path>
<path transform="translate(1031,61)" fill="#DFDFDF" d="M0 0 C2 1 2 1 2 1 Z"></path>
<path transform="translate(739,61)" fill="#DBDBDB" d="M0 0 C2 1 2 1 2 1 Z"></path>
<path transform="translate(424,61)" fill="#DADADA" d="M0 0 C2 1 2 1 2 1 Z"></path>
<path transform="translate(863,60)" fill="#DCDCDC" d="M0 0 C2 1 2 1 2 1 Z"></path>
<path transform="translate(1270,59)" fill="#E3E3E3" d="M0 0 C2 1 2 1 2 1 Z"></path>
<path transform="translate(1028,59)" fill="#DEDEDE" d="M0 0 C2 1 2 1 2 1 Z"></path>
<path transform="translate(742,59)" fill="#E0E0E0" d="M0 0 C2 1 2 1 2 1 Z"></path>
<path transform="translate(667,59)" fill="#CECECE" d="M0 0 C2 1 2 1 2 1 Z"></path>
<path transform="translate(421,59)" fill="#DEDEDE" d="M0 0 C2 1 2 1 2 1 Z"></path>
<path transform="translate(0,0)" fill="#EA2A00" d=""></path>
<path transform="translate(866,58)" fill="#DADADA" d="M0 0 C2 1 2 1 2 1 Z"></path>
<path transform="translate(665,58)" fill="#E5E5E5" d="M0 0 C2 1 2 1 2 1 Z"></path>
<path transform="translate(1267,57)" fill="#D6D6D6" d="M0 0 C2 1 2 1 2 1 Z"></path>
<path transform="translate(868,57)" fill="#E7E7E7" d="M0 0 C2 1 2 1 2 1 Z"></path>
<path transform="translate(663,57)" fill="#EEEEEE" d="M0 0 C2 1 2 1 2 1 Z"></path>
<path transform="translate(14,57)" fill="#DEDEDE" d="M0 0 C2 1 2 1 2 1 Z"></path>
<path transform="translate(1265,56)" fill="#CFCFCF" d="M0 0 C2 1 2 1 2 1 Z"></path>
<path transform="translate(1022,56)" fill="#F7F7F7" d="M0 0 C2 1 2 1 2 1 Z"></path>
<path transform="translate(870,56)" fill="#E4E4E4" d="M0 0 C2 1 2 1 2 1 Z"></path>
<path transform="translate(661,56)" fill="#F2F2F2" d="M0 0 C2 1 2 1 2 1 Z"></path>
<path transform="translate(416,56)" fill="#DDDDDD" d="M0 0 C2 1 2 1 2 1 Z"></path>
<path transform="translate(1020,55)" fill="#E7E7E7" d="M0 0 C2 1 2 1 2 1 Z"></path>
<path transform="translate(872,55)" fill="#DEDEDE" d="M0 0 C2 1 2 1 2 1 Z"></path>
<path transform="translate(750,55)" fill="#E8E8E8" d="M0 0 C2 1 2 1 2 1 Z"></path>
<path transform="translate(659,55)" fill="#E5E5E5" d="M0 0 C2 1 2 1 2 1 Z"></path>
<path transform="translate(413,55)" fill="#E8E8E8" d="M0 0 C2 1 2 1 2 1 Z"></path>
<path transform="translate(17,55)" fill="#CCCCCC" d="M0 0 C2 1 2 1 2 1 Z"></path>
<path transform="translate(1260,54)" fill="#ECECEC" d="M0 0 C2 1 2 1 2 1 Z"></path>
<path transform="translate(875,54)" fill="#EDEDED" d="M0 0 C2 1 2 1 2 1 Z"></path>
<path transform="translate(0,0)" fill="#EA2A00" d=""></path>
<path transform="translate(20,54)" fill="#EFEFEF" d="M0 0 C2 1 2 1 2 1 Z"></path>
<path transform="translate(22,53)" fill="#DFDFDF" d="M0 0 C2 1 2 1 2 1 Z"></path>
<path transform="translate(0,0)" fill="#E9E9E9" d=""></path>
<path transform="translate(0,0)" fill="#E6E6E6" d=""></path>
<path transform="translate(0,0)" fill="#DFDFDF" d=""></path>
<path transform="translate(0,0)" fill="#D9D9D9" d=""></path>
<path transform="translate(0,0)" fill="#E4E4E4" d=""></path>
<path transform="translate(0,0)" fill="#FDFDFD" d=""></path>
<path transform="translate(0,0)" fill="#F7F7F7" d=""></path>
<path transform="translate(0,0)" fill="#EFEFEF" d=""></path>
<path transform="translate(0,0)" fill="#E4E4E4" d=""></path>
<path transform="translate(0,0)" fill="#F2F2F2" d=""></path>
<path transform="translate(0,0)" fill="#FFFFFF" d=""></path>
<path transform="translate(0,0)" fill="#FFFFFF" d=""></path>
<path transform="translate(0,0)" fill="#FFFFFF" d=""></path>
<path transform="translate(0,0)" fill="#D2D2D2" d=""></path>
<path transform="translate(0,0)" fill="#CACACA" d=""></path>
<path transform="translate(0,0)" fill="#EBEBEB" d=""></path>
<path transform="translate(0,0)" fill="#CCCCCC" d=""></path>
<path transform="translate(0,0)" fill="#C4C4C4" d=""></path>
<path transform="translate(0,0)" fill="#C9C9C9" d=""></path>
<path transform="translate(0,0)" fill="#FFFFFF" d=""></path>
<path transform="translate(0,0)" fill="#C6C6C6" d=""></path>
<path transform="translate(0,0)" fill="#BDBDBD" d=""></path>
<path transform="translate(0,0)" fill="#CDCDCD" d=""></path>
<path transform="translate(0,0)" fill="#F4F4F4" d=""></path>
<path transform="translate(0,0)" fill="#D3D3D3" d=""></path>
<path transform="translate(0,0)" fill="#C8C8C8" d=""></path>
<path transform="translate(0,0)" fill="#E5E5E5" d=""></path>
<path transform="translate(0,0)" fill="#D4D4D4" d=""></path>
<path transform="translate(0,0)" fill="#F0F0F0" d=""></path>
<path transform="translate(0,0)" fill="#D7D7D7" d=""></path>
<path transform="translate(0,0)" fill="#DBDBDB" d=""></path>
<path transform="translate(0,0)" fill="#EBEBEB" d=""></path>
<path transform="translate(0,0)" fill="#D6D6D6" d=""></path>
<path transform="translate(0,0)" fill="#D9D9D9" d=""></path>
<path transform="translate(0,0)" fill="#DADADA" d=""></path>
<path transform="translate(0,0)" fill="#F8F8F8" d=""></path>
<path transform="translate(0,0)" fill="#DEDEDE" d=""></path>
<path transform="translate(0,0)" fill="#D6D6D6" d=""></path>
<path transform="translate(0,0)" fill="#C8C8C8" d=""></path>
<path transform="translate(0,0)" fill="#E2E2E2" d=""></path>
<path transform="translate(0,0)" fill="#FFFFFF" d=""></path>
<path transform="translate(0,0)" fill="#CECECE" d=""></path>
<path transform="translate(0,0)" fill="#C4C4C4" d=""></path>
<path transform="translate(0,0)" fill="#C1C1C1" d=""></path>
<path transform="translate(0,0)" fill="#E6E6E6" d=""></path>
<path transform="translate(0,0)" fill="#E4E4E4" d=""></path>
<path transform="translate(0,0)" fill="#F4F4F4" d=""></path>
<path transform="translate(0,0)" fill="#CCCCCC" d=""></path>
<path transform="translate(0,0)" fill="#D7D7D7" d=""></path>
<path transform="translate(0,0)" fill="#D8D8D8" d=""></path>
<path transform="translate(0,0)" fill="#D7D7D7" d=""></path>
<path transform="translate(0,0)" fill="#DDDDDD" d=""></path>
<path transform="translate(0,0)" fill="#CFCFCF" d=""></path>
<path transform="translate(0,0)" fill="#FFFFFF" d=""></path>
<path transform="translate(0,0)" fill="#E9E9E9" d=""></path>
<path transform="translate(0,0)" fill="#FFFFFF" d=""></path>
<path transform="translate(0,0)" fill="#EBEBEB" d=""></path>
<path transform="translate(0,0)" fill="#EBEBEB" d=""></path>
<path transform="translate(0,0)" fill="#DFDFDF" d=""></path>
<path transform="translate(0,0)" fill="#DBDBDB" d=""></path>
<path transform="translate(0,0)" fill="#D0D0D0" d=""></path>
<path transform="translate(0,0)" fill="#D0D0D0" d=""></path>
<path transform="translate(0,0)" fill="#E5E5E5" d=""></path>
<path transform="translate(0,0)" fill="#E5E5E5" d=""></path>
<path transform="translate(0,0)" fill="#DBDBDB" d=""></path>
<path transform="translate(0,0)" fill="#DCDCDC" d=""></path>
<path transform="translate(0,0)" fill="#CDCDCD" d=""></path>
<path transform="translate(0,0)" fill="#D0D0D0" d=""></path>
<path transform="translate(0,0)" fill="#E2E2E2" d=""></path>
<path transform="translate(0,0)" fill="#EA2A00" d=""></path>
<path transform="translate(0,0)" fill="#DCDCDC" d=""></path>
<path transform="translate(0,0)" fill="#D6D6D6" d=""></path>
<path transform="translate(0,0)" fill="#E2E2E2" d=""></path>
<path transform="translate(0,0)" fill="#D2D2D2" d=""></path>
<path transform="translate(0,0)" fill="#D1D1D1" d=""></path>
<path transform="translate(0,0)" fill="#E9E9E9" d=""></path>
<path transform="translate(0,0)" fill="#C8C8C8" d=""></path>
<path transform="translate(0,0)" fill="#EFEFEF" d=""></path>
<path transform="translate(0,0)" fill="#D4D4D4" d=""></path>
<path transform="translate(0,0)" fill="#FAFAFA" d=""></path>
<path transform="translate(0,0)" fill="#DEDEDE" d=""></path>
<path transform="translate(0,0)" fill="#E8E8E8" d=""></path>
<path transform="translate(0,0)" fill="#D7D7D7" d=""></path>
<path transform="translate(0,0)" fill="#FFFFFF" d=""></path>
<path transform="translate(0,0)" fill="#D5D5D5" d=""></path>
<path transform="translate(0,0)" fill="#DDDDDD" d=""></path>
<path transform="translate(0,0)" fill="#E7E7E7" d=""></path>
<path transform="translate(0,0)" fill="#E5E5E5" d=""></path>
<path transform="translate(0,0)" fill="#FCFCFC" d=""></path>
<path transform="translate(0,0)" fill="#D4D4D4" d=""></path>
<path transform="translate(0,0)" fill="#EBEBEB" d=""></path>
<path transform="translate(0,0)" fill="#EFEFEF" d=""></path>
<path transform="translate(0,0)" fill="#EAEAEA" d=""></path>
<path transform="translate(0,0)" fill="#F4F4F4" d=""></path>
<path transform="translate(0,0)" fill="#C0C0C0" d=""></path>
<path transform="translate(0,0)" fill="#F2F2F2" d=""></path>
<path transform="translate(0,0)" fill="#D7D7D7" d=""></path>
<path transform="translate(0,0)" fill="#C9C9C9" d=""></path>
<path transform="translate(0,0)" fill="#E0E0E0" d=""></path>
<path transform="translate(0,0)" fill="#D4D4D4" d=""></path>
<path transform="translate(0,0)" fill="#CCCCCC" d=""></path>
<path transform="translate(0,0)" fill="#D6D6D6" d=""></path>
<path transform="translate(0,0)" fill="#C1C1C1" d=""></path>
<path transform="translate(0,0)" fill="#EEEEEE" d=""></path>
<path transform="translate(0,0)" fill="#D1D1D1" d=""></path>
<path transform="translate(0,0)" fill="#CACACA" d=""></path>
<path transform="translate(0,0)" fill="#C6C6C6" d=""></path>
<path transform="translate(0,0)" fill="#D3D3D3" d=""></path>
<path transform="translate(0,0)" fill="#F8F8F8" d=""></path>
<path transform="translate(0,0)" fill="#C0C0C0" d=""></path>
<path transform="translate(0,0)" fill="#FAFAFA" d=""></path>
<path transform="translate(0,0)" fill="#E3E3E3" d=""></path>
<path transform="translate(0,0)" fill="#E5E5E5" d=""></path>
<path transform="translate(0,0)" fill="#D9D9D9" d=""></path>
<path transform="translate(0,0)" fill="#E3E3E3" d=""></path>
<path transform="translate(0,0)" fill="#ECECEC" d=""></path>
<path transform="translate(0,0)" fill="#E8E8E8" d=""></path>
<path transform="translate(0,0)" fill="#DCDCDC" d=""></path>
<path transform="translate(0,0)" fill="#DBDBDB" d=""></path>
<path transform="translate(0,0)" fill="#DFDFDF" d=""></path>
<path transform="translate(0,0)" fill="#EEEEEE" d=""></path>
<path transform="translate(0,0)" fill="#E6E6E6" d=""></path>
<path transform="translate(0,0)" fill="#E6E6E6" d=""></path>
<path transform="translate(0,0)" fill="#E6E6E6" d=""></path>
<path transform="translate(0,0)" fill="#F2F2F2" d=""></path>
<path transform="translate(0,0)" fill="#E3E3E3" d=""></path>
<path transform="translate(0,0)" fill="#EA2A00" d=""></path>
<path transform="translate(0,0)" fill="#EA2A00" d=""></path>
</svg>
